<?xml version="1.0" encoding="UTF-8" standalone="no"?>
<!-- Created with Inkscape (http://www.inkscape.org/) -->

<?xml-stylesheet href="../../css/fonts/fonts.css" type="text/css"?><svg
   xmlns:dc="http://purl.org/dc/elements/1.1/"
   xmlns:cc="http://creativecommons.org/ns#"
   xmlns:rdf="http://www.w3.org/1999/02/22-rdf-syntax-ns#"
   xmlns:svg="http://www.w3.org/2000/svg"
   xmlns="http://www.w3.org/2000/svg"
   xmlns:sodipodi="http://sodipodi.sourceforge.net/DTD/sodipodi-0.dtd"
   xmlns:inkscape="http://www.inkscape.org/namespaces/inkscape"
   preserveAspectRatio="xMinYMin meet"
   viewBox="0 0 837.58728 316.59771"
   id="svg66402"
   version="1.1"
   sodipodi:docname="Fig2.12.std.svg"
   width="837.58728"
   height="316.59772"
   inkscape:version="0.92.5 (2060ec1f9f, 2020-04-08)">
  <sodipodi:namedview
     pagecolor="#ffffff"
     bordercolor="#666666"
     borderopacity="1"
     objecttolerance="10"
     gridtolerance="10"
     guidetolerance="10"
     inkscape:pageopacity="0"
     inkscape:pageshadow="2"
     inkscape:window-width="3840"
     inkscape:window-height="2160"
     id="namedview46"
     showgrid="false"
     fit-margin-top="0"
     fit-margin-left="0"
     fit-margin-right="0"
     fit-margin-bottom="0"
     inkscape:zoom="2.8770642"
     inkscape:cx="410.74253"
     inkscape:cy="180.93467"
     inkscape:window-x="0"
     inkscape:window-y="0"
     inkscape:window-maximized="0"
     inkscape:current-layer="svg66402" />
  <defs
     id="defs66404" />
  <metadata
     id="metadata_2.12">
    <!--
    <rdf:RDF>
      <cc:Work rdf:about="">
        <dc:format>image/svg+xml</dc:format>
        <dc:type rdf:resource="http://purl.org/dc/dcmitype/StillImage"></dc:type>
        <dc:title></dc:title>
        <cc:license rdf:resource="http://creativecommons.org/licenses/by-sa/3.0/"></cc:license>
        <dc:description>Based on the diagram in Abelson, Sussman &amp; Sussman's "Structure and Interpretation of Computer Programs", 2nd ed.</dc:description>
        <dc:source>http://mitpress.mit.edu/sicp/full-text/book/book-Z-H-15.html#%_fig_2.12</dc:source>
        <dc:creator>
          <cc:Agent>
            <dc:title>Andres Raba</dc:title>
          </cc:Agent>
        </dc:creator>
        <dc:date>2012-11-17</dc:date>
        <dc:subject>
          <rdf:Bag>
            <rdf:li>wave</rdf:li>
            <rdf:li>wave2</rdf:li>
            <rdf:li>wave4</rdf:li>
            <rdf:li>painter</rdf:li>
            <rdf:li>complex</rdf:li>
            <rdf:li>figure</rdf:li>
            <rdf:li>beside</rdf:li>
            <rdf:li>below</rdf:li>
            <rdf:li>flip-vert</rdf:li>
          </rdf:Bag>
        </dc:subject>
      </cc:Work>
      <cc:License rdf:about="http://creativecommons.org/licenses/by-sa/3.0/">
        <cc:permits rdf:resource="http://creativecommons.org/ns#Reproduction"></cc:permits>
        <cc:permits rdf:resource="http://creativecommons.org/ns#Distribution"></cc:permits>
        <cc:requires rdf:resource="http://creativecommons.org/ns#Notice"></cc:requires>
        <cc:requires rdf:resource="http://creativecommons.org/ns#Attribution"></cc:requires>
        <cc:permits rdf:resource="http://creativecommons.org/ns#DerivativeWorks"></cc:permits>
        <cc:requires rdf:resource="http://creativecommons.org/ns#ShareAlike"></cc:requires>
      </cc:License>
    </rdf:RDF>
  -->
    <rdf:RDF>
      <cc:Work
         rdf:about="">
        <dc:format>image/svg+xml</dc:format>
        <dc:type
           rdf:resource="http://purl.org/dc/dcmitype/StillImage" />
        <dc:title></dc:title>
      </cc:Work>
    </rdf:RDF>
  </metadata>
  <g
     id="g2634"
     transform="matrix(1.9722043,0,0,1.9999296,-0.66021564,1.1444048)"
     style="stroke-width:1.00703993;stroke-miterlimit:4;stroke-dasharray:none">
    <g
       transform="matrix(0.28077998,0,0,0.29667755,82.484689,58.95838)"
       id="g1662"
       style="display:inline;stroke-width:3.48916317;stroke-miterlimit:4;stroke-dasharray:none">
      <path
         d="m -92.886195,330.12689 c 10.93189,-26.95827 19.35982,-54.86528 25.17715,-83.36812 2.44012,-11.95575 4.41732,-24.00133 5.92713,-36.1098 l 3.83195,-67.04888 18.44145,66.25352 c 2.66247,19.92203 4.64468,39.92907 5.94318,59.98623 1.35938,20.99745 1.9686,42.03692 1.8265,63.07785"
         style="fill:none;stroke:#000000;stroke-width:3.48916317;stroke-linecap:butt;stroke-linejoin:miter;stroke-miterlimit:4;stroke-dasharray:none;stroke-opacity:1"
         id="path1650"
         inkscape:connector-curvature="0" />
      <g
         style="fill:none;stroke-width:3.48916317;stroke-miterlimit:4;stroke-dasharray:none"
         id="g1654">
        <path
           sodipodi:nodetypes="cscccscsscsc"
           inkscape:connector-curvature="0"
           id="path1652"
           style="fill:none;stroke:#000000;stroke-width:3.48916317;stroke-linecap:butt;stroke-linejoin:miter;stroke-miterlimit:4;stroke-dasharray:none;stroke-opacity:1"
           d="m 25.690905,329.70195 c 0.37658,-26.77373 -1.29419,-53.53693 -4.99772,-80.05586 -2.1958,-15.72294 -5.10358,-31.33827 -8.71438,-46.7976 -6.5941804,-15.97187 -12.18617038,-32.33933 -16.7434304,-49.0072 -3.56854,-13.0516 -6.4976196,-26.26969 -8.7767696,-39.60705 1.65564,-24.207665 2.11301,-48.482395 1.37046,-72.735235 -0.18058,-5.89789 -0.43211,-11.79341 -0.75454,-17.68525 1.2876,-6.12154 5.1290296,-11.41638 10.5510796,-14.5360705 7.17092,-4.12594 15.4128804,-4.05875 23.1126404,-3.34805 11.26696,1.03995 22.55023,3.57188 33.65927,7.7765205 9.13872,4.10939 18.2316,8.31994 27.27698,12.63089 28.821225,13.73593 57.148505,48.709227 84.928775,64.444367" />
      </g>
      <path
         sodipodi:nodetypes="cscscccccc"
         d="m -29.034725,-198.74323 c 5.81489,5.29749 10.79809,11.44118 14.78168,18.22404 5.2066596,8.86539 8.6207696,18.66737 10.0483396,28.84905 2.29392,17.93092 -2.55874,36.04449 -13.5095596,50.42712 -4.81328,6.321685 -10.70565,11.743225 -17.4054,16.014615 l 0.90175,27.17344 51.54828,13.60453 65.59668,19.47547 c 18.688215,6.5404 22.602455,14.50133 40.075785,23.8129295 9.9584,5.30693 33.92643,31.2698475 43.38443,37.4243775"
         style="fill:none;stroke:#000000;stroke-width:3.48916317;stroke-linecap:butt;stroke-linejoin:miter;stroke-miterlimit:4;stroke-dasharray:none;stroke-opacity:1"
         id="path1656"
         inkscape:connector-curvature="0" />
      <path
         sodipodi:nodetypes="csccccccsc"
         d="m -95.051245,-198.47696 c -34.717735,12.12784 -52.695205,50.41222 -39.854405,84.87251 6.4956,17.431915 20.59574,30.943445 38.288675,36.690205 l -0.43227,27.35514 c -14.428005,2.61614 -28.132405,8.2784 -40.199335,16.6092 -10.0836,6.96174 -18.8432,15.66814 -25.86591,25.7093395 -5.61924,10.16746 -11.0749,20.1606605 -16.46064,30.0849305 -7.98464,14.71307 -17.44736,31.12227 -35.13538,33.5724 -13.44564,1.8624 -25.15388,7.120651 -35.88354,-0.481619 -13.13668,-9.30773 -26.67786,-11.692804 -40.74212,-20.656134"
         style="fill:none;stroke:#000000;stroke-width:3.48916317;stroke-linecap:butt;stroke-linejoin:miter;stroke-miterlimit:4;stroke-dasharray:none;stroke-opacity:1"
         id="path1658"
         inkscape:connector-curvature="0" />
      <path
         sodipodi:nodetypes="cscscccccccccc"
         d="m -290.37821,89.798202 c 10.68106,7.73214 22.00817,0.746549 33.82524,5.995079 16.56712,7.358259 34.80141,5.731589 53.10994,1.958044 7.43796,-1.53304 14.48942,-4.48784 21.00108,-8.39137 15.61721,-9.362 27.37306,-23.40355 38.0312,-37.79017 8.6348,-11.65526 16.75,-23.80055 24.29853,-36.41662 1.3168,8.47422 2.3788,16.98606 3.18453,25.524 0.9144,9.68808 1.49854,19.4045 1.7512,29.13235 1.18867,9.2482 2.0004,18.54096 2.4332,27.8552 0.81987,17.642085 0.27934,35.321125 -1.61666,52.880175 -0.2724,10.98854 -1.19334,21.95147 -2.758,32.83147 -1.61694,11.24307 -3.91827,22.37707 -6.89134,33.33987 -5.0636,17.98413 -9.37,36.17293 -12.90786,54.51839 -3.6836,19.1004 -6.53054,38.35267 -8.53294,57.70174"
         style="fill:none;stroke:#000000;stroke-width:3.48916317;stroke-linecap:butt;stroke-linejoin:miter;stroke-miterlimit:4;stroke-dasharray:none;stroke-opacity:1"
         id="path1660"
         inkscape:connector-curvature="0" />
    </g>
    <g
       id="g1755"
       transform="matrix(0.28077998,0,0,-0.29667755,210.48469,98.20161)"
       style="display:inline;stroke-width:3.48916317;stroke-miterlimit:4;stroke-dasharray:none">
      <path
         inkscape:connector-curvature="0"
         id="path1743"
         style="fill:none;stroke:#000000;stroke-width:3.48916317;stroke-linecap:butt;stroke-linejoin:miter;stroke-miterlimit:4;stroke-dasharray:none;stroke-opacity:1"
         d="m -92.886195,330.12689 c 10.93189,-26.95827 19.35982,-54.86528 25.17715,-83.36812 2.44012,-11.95575 4.41732,-24.00133 5.92713,-36.1098 l 3.83195,-67.04888 18.44145,66.25352 c 2.66247,19.92203 4.64468,39.92907 5.94318,59.98623 1.35938,20.99745 1.9686,42.03692 1.8265,63.07785" />
      <g
         id="g1747"
         style="fill:none;stroke-width:3.48916317;stroke-miterlimit:4;stroke-dasharray:none">
        <path
           d="m 25.690905,329.70195 c 0.37658,-26.77373 -1.29419,-53.53693 -4.99772,-80.05586 -2.1958,-15.72294 -5.10358,-31.33827 -8.71438,-46.7976 -6.5941804,-15.97187 -12.18617038,-32.33933 -16.7434304,-49.0072 -3.56854,-13.0516 -6.4976196,-26.26969 -8.7767696,-39.60705 1.65564,-24.207665 2.11301,-48.482395 1.37046,-72.735235 -0.18058,-5.89789 -0.43211,-11.79341 -0.75454,-17.68525 1.2876,-6.12154 5.1290296,-11.41638 10.5510796,-14.5360705 7.17092,-4.12594 15.4128804,-4.05875 23.1126404,-3.34805 11.26696,1.03995 22.55023,3.57188 33.65927,7.7765205 9.13872,4.10939 18.2316,8.31994 27.27698,12.63089 28.821225,13.73593 57.148505,48.709227 84.928775,64.444367"
           style="fill:none;stroke:#000000;stroke-width:3.48916317;stroke-linecap:butt;stroke-linejoin:miter;stroke-miterlimit:4;stroke-dasharray:none;stroke-opacity:1"
           id="path1745"
           inkscape:connector-curvature="0"
           sodipodi:nodetypes="cscccscsscsc" />
      </g>
      <path
         inkscape:connector-curvature="0"
         id="path1749"
         style="fill:none;stroke:#000000;stroke-width:3.48916317;stroke-linecap:butt;stroke-linejoin:miter;stroke-miterlimit:4;stroke-dasharray:none;stroke-opacity:1"
         d="m -29.034725,-198.74323 c 5.81489,5.29749 10.79809,11.44118 14.78168,18.22404 5.2066596,8.86539 8.6207696,18.66737 10.0483396,28.84905 2.29392,17.93092 -2.55874,36.04449 -13.5095596,50.42712 -4.81328,6.321685 -10.70565,11.743225 -17.4054,16.014615 l 0.90175,27.17344 51.54828,13.60453 65.59668,19.47547 c 18.688215,6.5404 22.602455,14.50133 40.075785,23.8129295 9.9584,5.30693 33.92643,31.2698475 43.38443,37.4243775"
         sodipodi:nodetypes="cscscccccc" />
      <path
         inkscape:connector-curvature="0"
         id="path1751"
         style="fill:none;stroke:#000000;stroke-width:3.48916317;stroke-linecap:butt;stroke-linejoin:miter;stroke-miterlimit:4;stroke-dasharray:none;stroke-opacity:1"
         d="m -95.051245,-198.47696 c -34.717735,12.12784 -52.695205,50.41222 -39.854405,84.87251 6.4956,17.431915 20.59574,30.943445 38.288675,36.690205 l -0.43227,27.35514 c -14.428005,2.61614 -28.132405,8.2784 -40.199335,16.6092 -10.0836,6.96174 -18.8432,15.66814 -25.86591,25.7093395 -5.61924,10.16746 -11.0749,20.1606605 -16.46064,30.0849305 -7.98464,14.71307 -17.44736,31.12227 -35.13538,33.5724 -13.44564,1.8624 -25.15388,7.120651 -35.88354,-0.481619 -13.13668,-9.30773 -26.67786,-4.951478 -40.74212,-13.914808"
         sodipodi:nodetypes="csccccccsc" />
      <path
         inkscape:connector-curvature="0"
         id="path1753"
         style="fill:none;stroke:#000000;stroke-width:3.48916317;stroke-linecap:butt;stroke-linejoin:miter;stroke-miterlimit:4;stroke-dasharray:none;stroke-opacity:1"
         d="m -290.37821,96.539528 c 10.68106,7.732142 22.00817,-5.994777 33.82524,-0.746247 16.56712,7.358259 34.80141,5.731589 53.10994,1.958044 7.43796,-1.53304 14.48942,-4.48784 21.00108,-8.39137 15.61721,-9.362 27.37306,-23.40355 38.0312,-37.79017 8.6348,-11.65526 16.75,-23.80055 24.29853,-36.41662 1.3168,8.47422 2.3788,16.98606 3.18453,25.524 0.9144,9.68808 1.49854,19.4045 1.7512,29.13235 1.18867,9.2482 2.0004,18.54096 2.4332,27.8552 0.81987,17.642085 0.27934,35.321125 -1.61666,52.880175 -0.2724,10.98854 -1.19334,21.95147 -2.758,32.83147 -1.61694,11.24307 -3.91827,22.37707 -6.89134,33.33987 -5.0636,17.98413 -9.37,36.17293 -12.90786,54.51839 -3.6836,19.1004 -6.53054,38.35267 -8.53294,57.70174"
         sodipodi:nodetypes="cscscccccccccc" />
    </g>
  </g>
  <g
     transform="matrix(0.28077998,0,0,0.29667755,662.4888,59.53523)"
     id="g2576"
     style="display:inline">
    <path
       d="m -92.886195,330.12689 c 10.93189,-26.95827 19.35982,-54.86528 25.17715,-83.36812 2.44012,-11.95575 4.41732,-24.00133 5.92713,-36.1098 l 3.83195,-67.04888 18.44145,66.25352 c 2.66247,19.92203 4.64468,39.92907 5.94318,59.98623 1.35938,20.99745 1.9686,42.03692 1.8265,63.07785"
       style="fill:none;stroke:#000000;stroke-width:4.61969519;stroke-linecap:butt;stroke-linejoin:miter;stroke-miterlimit:4;stroke-dasharray:none;stroke-opacity:1"
       id="path2564"
       inkscape:connector-curvature="0" />
    <g
       style="fill:none;stroke-width:4.61969519;stroke-miterlimit:4;stroke-dasharray:none"
       id="g2568">
      <path
         sodipodi:nodetypes="cscccscsscsc"
         inkscape:connector-curvature="0"
         id="path2566"
         style="fill:none;stroke:#000000;stroke-width:4.61969519;stroke-linecap:butt;stroke-linejoin:miter;stroke-miterlimit:4;stroke-dasharray:none;stroke-opacity:1"
         d="m 25.690905,329.70195 c 0.37658,-26.77373 -1.29419,-53.53693 -4.99772,-80.05586 -2.1958,-15.72294 -5.10358,-31.33827 -8.71438,-46.7976 -6.5941804,-15.97187 -12.18617038,-32.33933 -16.7434304,-49.0072 -3.56854,-13.0516 -6.4976196,-26.26969 -8.7767696,-39.60705 1.65564,-24.207665 2.11301,-48.482395 1.37046,-72.735235 -0.18058,-5.89789 -0.43211,-11.79341 -0.75454,-17.68525 1.2876,-6.12154 5.1290296,-11.41638 10.5510796,-14.5360705 7.17092,-4.12594 15.4128804,-4.05875 23.1126404,-3.34805 11.26696,1.03995 22.55023,3.57188 33.65927,7.7765205 9.13872,4.10939 18.2316,8.31994 27.27698,12.63089 28.821225,13.73593 57.148505,48.709227 84.928775,64.444367" />
    </g>
    <path
       sodipodi:nodetypes="cscscccccc"
       d="m -29.034725,-198.74323 c 5.81489,5.29749 10.79809,11.44118 14.78168,18.22404 5.2066596,8.86539 8.6207696,18.66737 10.0483396,28.84905 2.29392,17.93092 -2.55874,36.04449 -13.5095596,50.42712 -4.81328,6.321685 -10.70565,11.743225 -17.4054,16.014615 l 0.90175,27.17344 51.54828,13.60453 65.59668,19.47547 c 18.688215,6.5404 22.602455,14.50133 40.075785,23.8129295 9.9584,5.30693 33.92643,31.2698475 43.38443,37.4243775"
       style="fill:none;stroke:#000000;stroke-width:4.61969519;stroke-linecap:butt;stroke-linejoin:miter;stroke-miterlimit:4;stroke-dasharray:none;stroke-opacity:1"
       id="path2570"
       inkscape:connector-curvature="0" />
    <path
       sodipodi:nodetypes="csccccccsc"
       d="m -95.051245,-198.47696 c -34.717735,12.12784 -52.695205,50.41222 -39.854405,84.87251 6.4956,17.431915 20.59574,30.943445 38.288675,36.690205 l -0.43227,27.35514 c -14.428005,2.61614 -28.132405,8.2784 -40.199335,16.6092 -10.0836,6.96174 -18.8432,15.66814 -25.86591,25.7093395 -5.61924,10.16746 -11.0749,20.1606605 -16.46064,30.0849305 -7.98464,14.71307 -17.44736,31.12227 -35.13538,33.5724 -13.44564,1.8624 -25.15388,7.120651 -35.88354,-0.481619 -13.13668,-9.30773 -26.67786,-11.692804 -40.74212,-20.656134"
       style="fill:none;stroke:#000000;stroke-width:4.61969519;stroke-linecap:butt;stroke-linejoin:miter;stroke-miterlimit:4;stroke-dasharray:none;stroke-opacity:1"
       id="path2572"
       inkscape:connector-curvature="0" />
    <path
       sodipodi:nodetypes="cscscccccccccc"
       d="m -290.37821,89.798202 c 10.68106,7.73214 22.00817,0.746549 33.82524,5.995079 16.56712,7.358259 34.80141,5.731589 53.10994,1.958044 7.43796,-1.53304 14.48942,-4.48784 21.00108,-8.39137 15.61721,-9.362 27.37306,-23.40355 38.0312,-37.79017 8.6348,-11.65526 16.75,-23.80055 24.29853,-36.41662 1.3168,8.47422 2.3788,16.98606 3.18453,25.524 0.9144,9.68808 1.49854,19.4045 1.7512,29.13235 1.18867,9.2482 2.0004,18.54096 2.4332,27.8552 0.81987,17.642085 0.27934,35.321125 -1.61666,52.880175 -0.2724,10.98854 -1.19334,21.95147 -2.758,32.83147 -1.61694,11.24307 -3.91827,22.37707 -6.89134,33.33987 -5.0636,17.98413 -9.37,36.17293 -12.90786,54.51839 -3.6836,19.1004 -6.53054,38.35267 -8.53294,57.70174"
       style="fill:none;stroke:#000000;stroke-width:4.61969519;stroke-linecap:butt;stroke-linejoin:miter;stroke-miterlimit:4;stroke-dasharray:none;stroke-opacity:1"
       id="path2574"
       inkscape:connector-curvature="0" />
  </g>
  <g
     id="g2590"
     transform="matrix(0.28077998,0,0,-0.29667755,790.4888,98.77846)"
     style="display:inline">
    <path
       inkscape:connector-curvature="0"
       id="path2578"
       style="fill:none;stroke:#000000;stroke-width:4.61969519;stroke-linecap:butt;stroke-linejoin:miter;stroke-miterlimit:4;stroke-dasharray:none;stroke-opacity:1"
       d="m -92.886195,330.12689 c 10.93189,-26.95827 19.35982,-54.86528 25.17715,-83.36812 2.44012,-11.95575 4.41732,-24.00133 5.92713,-36.1098 l 3.83195,-67.04888 18.44145,66.25352 c 2.66247,19.92203 4.64468,39.92907 5.94318,59.98623 1.35938,20.99745 1.9686,42.03692 1.8265,63.07785" />
    <g
       id="g2582"
       style="fill:none;stroke-width:4.61969519;stroke-miterlimit:4;stroke-dasharray:none">
      <path
         d="m 25.690905,329.70195 c 0.37658,-26.77373 -1.29419,-53.53693 -4.99772,-80.05586 -2.1958,-15.72294 -5.10358,-31.33827 -8.71438,-46.7976 -6.5941804,-15.97187 -12.18617038,-32.33933 -16.7434304,-49.0072 -3.56854,-13.0516 -6.4976196,-26.26969 -8.7767696,-39.60705 1.65564,-24.207665 2.11301,-48.482395 1.37046,-72.735235 -0.18058,-5.89789 -0.43211,-11.79341 -0.75454,-17.68525 1.2876,-6.12154 5.1290296,-11.41638 10.5510796,-14.5360705 7.17092,-4.12594 15.4128804,-4.05875 23.1126404,-3.34805 11.26696,1.03995 22.55023,3.57188 33.65927,7.7765205 9.13872,4.10939 18.2316,8.31994 27.27698,12.63089 28.821225,13.73593 57.148505,48.709227 84.928775,64.444367"
         style="fill:none;stroke:#000000;stroke-width:4.61969519;stroke-linecap:butt;stroke-linejoin:miter;stroke-miterlimit:4;stroke-dasharray:none;stroke-opacity:1"
         id="path2580"
         inkscape:connector-curvature="0"
         sodipodi:nodetypes="cscccscsscsc" />
    </g>
    <path
       inkscape:connector-curvature="0"
       id="path2584"
       style="fill:none;stroke:#000000;stroke-width:4.61969519;stroke-linecap:butt;stroke-linejoin:miter;stroke-miterlimit:4;stroke-dasharray:none;stroke-opacity:1"
       d="m -29.034725,-198.74323 c 5.81489,5.29749 10.79809,11.44118 14.78168,18.22404 5.2066596,8.86539 8.6207696,18.66737 10.0483396,28.84905 2.29392,17.93092 -2.55874,36.04449 -13.5095596,50.42712 -4.81328,6.321685 -10.70565,11.743225 -17.4054,16.014615 l 0.90175,27.17344 51.54828,13.60453 65.59668,19.47547 c 18.688215,6.5404 22.602455,14.50133 40.075785,23.8129295 9.9584,5.30693 33.92643,31.2698475 43.38443,37.4243775"
       sodipodi:nodetypes="cscscccccc" />
    <path
       inkscape:connector-curvature="0"
       id="path2586"
       style="fill:none;stroke:#000000;stroke-width:4.61969519;stroke-linecap:butt;stroke-linejoin:miter;stroke-miterlimit:4;stroke-dasharray:none;stroke-opacity:1"
       d="m -95.051245,-198.47696 c -34.717735,12.12784 -52.695205,50.41222 -39.854405,84.87251 6.4956,17.431915 20.59574,30.943445 38.288675,36.690205 l -0.43227,27.35514 c -14.428005,2.61614 -28.132405,8.2784 -40.199335,16.6092 -10.0836,6.96174 -18.8432,15.66814 -25.86591,25.7093395 -5.61924,10.16746 -11.0749,20.1606605 -16.46064,30.0849305 -7.98464,14.71307 -17.44736,31.12227 -35.13538,33.5724 -13.44564,1.8624 -25.15388,7.120651 -35.88354,-0.481619 -13.13668,-9.30773 -26.67786,-4.951478 -40.74212,-13.914808"
       sodipodi:nodetypes="csccccccsc" />
    <path
       inkscape:connector-curvature="0"
       id="path2588"
       style="fill:none;stroke:#000000;stroke-width:4.61969519;stroke-linecap:butt;stroke-linejoin:miter;stroke-miterlimit:4;stroke-dasharray:none;stroke-opacity:1"
       d="m -290.37821,96.539528 c 10.68106,7.732142 22.00817,-5.994777 33.82524,-0.746247 16.56712,7.358259 34.80141,5.731589 53.10994,1.958044 7.43796,-1.53304 14.48942,-4.48784 21.00108,-8.39137 15.61721,-9.362 27.37306,-23.40355 38.0312,-37.79017 8.6348,-11.65526 16.75,-23.80055 24.29853,-36.41662 1.3168,8.47422 2.3788,16.98606 3.18453,25.524 0.9144,9.68808 1.49854,19.4045 1.7512,29.13235 1.18867,9.2482 2.0004,18.54096 2.4332,27.8552 0.81987,17.642085 0.27934,35.321125 -1.61666,52.880175 -0.2724,10.98854 -1.19334,21.95147 -2.758,32.83147 -1.61694,11.24307 -3.91827,22.37707 -6.89134,33.33987 -5.0636,17.98413 -9.37,36.17293 -12.90786,54.51839 -3.6836,19.1004 -6.53054,38.35267 -8.53294,57.70174"
       sodipodi:nodetypes="cscscccccccccc" />
  </g>
  <g
     style="display:inline"
     id="g2604"
     transform="matrix(0.28077998,0,0,0.29667755,662.4888,216.53545)">
    <path
       inkscape:connector-curvature="0"
       id="path2592"
       style="fill:none;stroke:#000000;stroke-width:4.61969519;stroke-linecap:butt;stroke-linejoin:miter;stroke-miterlimit:4;stroke-dasharray:none;stroke-opacity:1"
       d="m -92.886195,330.12689 c 10.93189,-26.95827 19.35982,-54.86528 25.17715,-83.36812 2.44012,-11.95575 4.41732,-24.00133 5.92713,-36.1098 l 3.83195,-67.04888 18.44145,66.25352 c 2.66247,19.92203 4.64468,39.92907 5.94318,59.98623 1.35938,20.99745 1.9686,42.03692 1.8265,63.07785" />
    <g
       id="g2596"
       style="fill:none;stroke-width:4.61969519;stroke-miterlimit:4;stroke-dasharray:none">
      <path
         d="m 25.690905,329.70195 c 0.37658,-26.77373 -1.29419,-53.53693 -4.99772,-80.05586 -2.1958,-15.72294 -5.10358,-31.33827 -8.71438,-46.7976 -6.5941804,-15.97187 -12.18617038,-32.33933 -16.7434304,-49.0072 -3.56854,-13.0516 -6.4976196,-26.26969 -8.7767696,-39.60705 1.65564,-24.207665 2.11301,-48.482395 1.37046,-72.735235 -0.18058,-5.89789 -0.43211,-11.79341 -0.75454,-17.68525 1.2876,-6.12154 5.1290296,-11.41638 10.5510796,-14.5360705 7.17092,-4.12594 15.4128804,-4.05875 23.1126404,-3.34805 11.26696,1.03995 22.55023,3.57188 33.65927,7.7765205 9.13872,4.10939 18.2316,8.31994 27.27698,12.63089 28.821225,13.73593 57.148505,48.709227 84.928775,64.444367"
         style="fill:none;stroke:#000000;stroke-width:4.61969519;stroke-linecap:butt;stroke-linejoin:miter;stroke-miterlimit:4;stroke-dasharray:none;stroke-opacity:1"
         id="path2594"
         inkscape:connector-curvature="0"
         sodipodi:nodetypes="cscccscsscsc" />
    </g>
    <path
       inkscape:connector-curvature="0"
       id="path2598"
       style="fill:none;stroke:#000000;stroke-width:4.61969519;stroke-linecap:butt;stroke-linejoin:miter;stroke-miterlimit:4;stroke-dasharray:none;stroke-opacity:1"
       d="m -29.034725,-198.74323 c 5.81489,5.29749 10.79809,11.44118 14.78168,18.22404 5.2066596,8.86539 8.6207696,18.66737 10.0483396,28.84905 2.29392,17.93092 -2.55874,36.04449 -13.5095596,50.42712 -4.81328,6.321685 -10.70565,11.743225 -17.4054,16.014615 l 0.90175,27.17344 51.54828,13.60453 65.59668,19.47547 c 18.688215,6.5404 22.602455,14.50133 40.075785,23.8129295 9.9584,5.30693 33.92643,31.2698475 43.38443,37.4243775"
       sodipodi:nodetypes="cscscccccc" />
    <path
       inkscape:connector-curvature="0"
       id="path2600"
       style="fill:none;stroke:#000000;stroke-width:4.61969519;stroke-linecap:butt;stroke-linejoin:miter;stroke-miterlimit:4;stroke-dasharray:none;stroke-opacity:1"
       d="m -95.051245,-198.47696 c -34.717735,12.12784 -52.695205,50.41222 -39.854405,84.87251 6.4956,17.431915 20.59574,30.943445 38.288675,36.690205 l -0.43227,27.35514 c -14.428005,2.61614 -28.132405,8.2784 -40.199335,16.6092 -10.0836,6.96174 -18.8432,15.66814 -25.86591,25.7093395 -5.61924,10.16746 -11.0749,20.1606605 -16.46064,30.0849305 -7.98464,14.71307 -17.44736,31.12227 -35.13538,33.5724 -13.44564,1.8624 -25.15388,7.120651 -35.88354,-0.481619 -13.13668,-9.30773 -26.67786,-11.692804 -40.74212,-20.656134"
       sodipodi:nodetypes="csccccccsc" />
    <path
       inkscape:connector-curvature="0"
       id="path2602"
       style="fill:none;stroke:#000000;stroke-width:4.61969519;stroke-linecap:butt;stroke-linejoin:miter;stroke-miterlimit:4;stroke-dasharray:none;stroke-opacity:1"
       d="m -290.37821,89.798202 c 10.68106,7.73214 22.00817,0.746549 33.82524,5.995079 16.56712,7.358259 34.80141,5.731589 53.10994,1.958044 7.43796,-1.53304 14.48942,-4.48784 21.00108,-8.39137 15.61721,-9.362 27.37306,-23.40355 38.0312,-37.79017 8.6348,-11.65526 16.75,-23.80055 24.29853,-36.41662 1.3168,8.47422 2.3788,16.98606 3.18453,25.524 0.9144,9.68808 1.49854,19.4045 1.7512,29.13235 1.18867,9.2482 2.0004,18.54096 2.4332,27.8552 0.81987,17.642085 0.27934,35.321125 -1.61666,52.880175 -0.2724,10.98854 -1.19334,21.95147 -2.758,32.83147 -1.61694,11.24307 -3.91827,22.37707 -6.89134,33.33987 -5.0636,17.98413 -9.37,36.17293 -12.90786,54.51839 -3.6836,19.1004 -6.53054,38.35267 -8.53294,57.70174"
       sodipodi:nodetypes="cscscccccccccc" />
  </g>
  <g
     style="display:inline"
     transform="matrix(0.28077998,0,0,-0.29667755,790.4888,255.77868)"
     id="g2618">
    <path
       d="m -92.886195,330.12689 c 10.93189,-26.95827 19.35982,-54.86528 25.17715,-83.36812 2.44012,-11.95575 4.41732,-24.00133 5.92713,-36.1098 l 3.83195,-67.04888 18.44145,66.25352 c 2.66247,19.92203 4.64468,39.92907 5.94318,59.98623 1.35938,20.99745 1.9686,42.03692 1.8265,63.07785"
       style="fill:none;stroke:#000000;stroke-width:4.61969519;stroke-linecap:butt;stroke-linejoin:miter;stroke-miterlimit:4;stroke-dasharray:none;stroke-opacity:1"
       id="path2606"
       inkscape:connector-curvature="0" />
    <g
       style="fill:none;stroke-width:4.61969519;stroke-miterlimit:4;stroke-dasharray:none"
       id="g2610">
      <path
         sodipodi:nodetypes="cscccscsscsc"
         inkscape:connector-curvature="0"
         id="path2608"
         style="fill:none;stroke:#000000;stroke-width:4.61969519;stroke-linecap:butt;stroke-linejoin:miter;stroke-miterlimit:4;stroke-dasharray:none;stroke-opacity:1"
         d="m 25.690905,329.70195 c 0.37658,-26.77373 -1.29419,-53.53693 -4.99772,-80.05586 -2.1958,-15.72294 -5.10358,-31.33827 -8.71438,-46.7976 -6.5941804,-15.97187 -12.18617038,-32.33933 -16.7434304,-49.0072 -3.56854,-13.0516 -6.4976196,-26.26969 -8.7767696,-39.60705 1.65564,-24.207665 2.11301,-48.482395 1.37046,-72.735235 -0.18058,-5.89789 -0.43211,-11.79341 -0.75454,-17.68525 1.2876,-6.12154 5.1290296,-11.41638 10.5510796,-14.5360705 7.17092,-4.12594 15.4128804,-4.05875 23.1126404,-3.34805 11.26696,1.03995 22.55023,3.57188 33.65927,7.7765205 9.13872,4.10939 18.2316,8.31994 27.27698,12.63089 28.821225,13.73593 57.148505,48.709227 84.928775,64.444367" />
    </g>
    <path
       sodipodi:nodetypes="cscscccccc"
       d="m -29.034725,-198.74323 c 5.81489,5.29749 10.79809,11.44118 14.78168,18.22404 5.2066596,8.86539 8.6207696,18.66737 10.0483396,28.84905 2.29392,17.93092 -2.55874,36.04449 -13.5095596,50.42712 -4.81328,6.321685 -10.70565,11.743225 -17.4054,16.014615 l 0.90175,27.17344 51.54828,13.60453 65.59668,19.47547 c 18.688215,6.5404 22.602455,14.50133 40.075785,23.8129295 9.9584,5.30693 33.92643,31.2698475 43.38443,37.4243775"
       style="fill:none;stroke:#000000;stroke-width:4.61969519;stroke-linecap:butt;stroke-linejoin:miter;stroke-miterlimit:4;stroke-dasharray:none;stroke-opacity:1"
       id="path2612"
       inkscape:connector-curvature="0" />
    <path
       sodipodi:nodetypes="csccccccsc"
       d="m -95.051245,-198.47696 c -34.717735,12.12784 -52.695205,50.41222 -39.854405,84.87251 6.4956,17.431915 20.59574,30.943445 38.288675,36.690205 l -0.43227,27.35514 c -14.428005,2.61614 -28.132405,8.2784 -40.199335,16.6092 -10.0836,6.96174 -18.8432,15.66814 -25.86591,25.7093395 -5.61924,10.16746 -11.0749,20.1606605 -16.46064,30.0849305 -7.98464,14.71307 -17.44736,31.12227 -35.13538,33.5724 -13.44564,1.8624 -25.15388,7.120651 -35.88354,-0.481619 -13.13668,-9.30773 -26.67786,-4.951478 -40.74212,-13.914808"
       style="fill:none;stroke:#000000;stroke-width:4.61969519;stroke-linecap:butt;stroke-linejoin:miter;stroke-miterlimit:4;stroke-dasharray:none;stroke-opacity:1"
       id="path2614"
       inkscape:connector-curvature="0" />
    <path
       sodipodi:nodetypes="cscscccccccccc"
       d="m -290.37821,96.539528 c 10.68106,7.732142 22.00817,-5.994777 33.82524,-0.746247 16.56712,7.358259 34.80141,5.731589 53.10994,1.958044 7.43796,-1.53304 14.48942,-4.48784 21.00108,-8.39137 15.61721,-9.362 27.37306,-23.40355 38.0312,-37.79017 8.6348,-11.65526 16.75,-23.80055 24.29853,-36.41662 1.3168,8.47422 2.3788,16.98606 3.18453,25.524 0.9144,9.68808 1.49854,19.4045 1.7512,29.13235 1.18867,9.2482 2.0004,18.54096 2.4332,27.8552 0.81987,17.642085 0.27934,35.321125 -1.61666,52.880175 -0.2724,10.98854 -1.19334,21.95147 -2.758,32.83147 -1.61694,11.24307 -3.91827,22.37707 -6.89134,33.33987 -5.0636,17.98413 -9.37,36.17293 -12.90786,54.51839 -3.6836,19.1004 -6.53054,38.35267 -8.53294,57.70174"
       style="fill:none;stroke:#000000;stroke-width:4.61969519;stroke-linecap:butt;stroke-linejoin:miter;stroke-miterlimit:4;stroke-dasharray:none;stroke-opacity:1"
       id="path2616"
       inkscape:connector-curvature="0" />
  </g>
</svg>
