<?xml version="1.0" encoding="UTF-8" standalone="no"?>
<!DOCTYPE svg PUBLIC "-//W3C//DTD SVG 1.1//EN"
 "http://www.w3.org/Graphics/SVG/1.1/DTD/svg11.dtd">
<!-- Generated by graphviz version 2.26.3 (20100126.1600)
 -->
<!-- Title: recursion_tree Pages: 1 -->
<svg width="566pt" height="1364pt"
 viewBox="0.00 0.00 566.00 1364.00" xmlns="http://www.w3.org/2000/svg" xmlns:xlink="http://www.w3.org/1999/xlink">
<g id="graph1" class="graph" transform="scale(1 1) rotate(0) translate(4 1360)">
<title>recursion_tree</title>
<polygon fill="white" stroke="white" points="-4,5 -4,-1360 563,-1360 563,5 -4,5"/>
<!-- 2 -->
<g id="node1" class="node"><title>2</title>
<polygon fill="white" stroke="black" points="450,-1268 352,-1268 352,-1232 450,-1232 450,-1268"/>
<text text-anchor="middle" x="401" y="-1244.9" font-family="Times,serif" font-size="14.00">11 (25 10 5 1)</text>
</g>
<!-- 1 -->
<g id="node3" class="node"><title>1</title>
<polygon fill="white" stroke="black" points="521,-1356 405,-1356 405,-1320 521,-1320 521,-1356"/>
<text text-anchor="middle" x="463" y="-1332.9" font-family="Times,serif" font-size="14.00">11 (50 25 10 5 1)</text>
</g>
<!-- 2&#45;&gt;1 -->
<g id="edge2" class="edge"><title>2&#45;&gt;1</title>
<path fill="none" stroke="black" d="M413.846,-1268.23C422.658,-1280.74 434.492,-1297.54 444.34,-1311.51"/>
<polygon fill="black" stroke="black" points="441.549,-1313.63 450.17,-1319.79 447.272,-1309.6 441.549,-1313.63"/>
</g>
<!-- 4 -->
<g id="node4" class="node"><title>4</title>
<polygon fill="white" stroke="black" points="378,-1180 298,-1180 298,-1144 378,-1144 378,-1180"/>
<text text-anchor="middle" x="338" y="-1156.9" font-family="Times,serif" font-size="14.00">11 (10 5 1)</text>
</g>
<!-- 4&#45;&gt;2 -->
<g id="edge4" class="edge"><title>4&#45;&gt;2</title>
<path fill="none" stroke="black" d="M351.054,-1180.23C360.008,-1192.74 372.032,-1209.54 382.039,-1223.51"/>
<polygon fill="black" stroke="black" points="379.296,-1225.7 387.963,-1231.79 384.988,-1221.62 379.296,-1225.7"/>
</g>
<!-- 8 -->
<g id="node6" class="node"><title>8</title>
<polygon fill="white" stroke="black" points="307,-1092 245,-1092 245,-1056 307,-1056 307,-1092"/>
<text text-anchor="middle" x="276" y="-1068.9" font-family="Times,serif" font-size="14.00">11 (5 1)</text>
</g>
<!-- 8&#45;&gt;4 -->
<g id="edge6" class="edge"><title>8&#45;&gt;4</title>
<path fill="none" stroke="black" d="M288.846,-1092.23C297.658,-1104.74 309.492,-1121.54 319.34,-1135.51"/>
<polygon fill="black" stroke="black" points="316.549,-1137.63 325.17,-1143.79 322.272,-1133.6 316.549,-1137.63"/>
</g>
<!-- 16 -->
<g id="node8" class="node"><title>16</title>
<polygon fill="white" stroke="black" points="126,-1004 72,-1004 72,-968 126,-968 126,-1004"/>
<text text-anchor="middle" x="99" y="-980.9" font-family="Times,serif" font-size="14.00">11 (1)</text>
</g>
<!-- 16&#45;&gt;8 -->
<g id="edge8" class="edge"><title>16&#45;&gt;8</title>
<path fill="none" stroke="black" d="M126.268,-999.557C155.519,-1014.1 202.274,-1037.35 235.756,-1053.99"/>
<polygon fill="black" stroke="black" points="234.31,-1057.18 244.822,-1058.5 237.426,-1050.91 234.31,-1057.18"/>
</g>
<!-- 32 -->
<g id="node10" class="node"><title>32</title>
<ellipse fill="#f4cae4" stroke="black" cx="27" cy="-898" rx="27" ry="18"/>
<text text-anchor="middle" x="27" y="-892.9" font-family="Times,serif" font-size="14.00">0</text>
</g>
<!-- 32&#45;&gt;16 -->
<g id="edge10" class="edge"><title>32&#45;&gt;16</title>
<path fill="none" stroke="black" d="M40.2059,-914.141C50.6876,-926.952 65.5488,-945.115 77.7072,-959.976"/>
<polygon fill="black" stroke="black" points="75.0976,-962.313 84.1389,-967.836 80.5153,-957.88 75.0976,-962.313"/>
</g>
<!-- 33 -->
<g id="node12" class="node"><title>33</title>
<polygon fill="white" stroke="black" points="126,-916 72,-916 72,-880 126,-880 126,-916"/>
<text text-anchor="middle" x="99" y="-892.9" font-family="Times,serif" font-size="14.00">10 (1)</text>
</g>
<!-- 33&#45;&gt;16 -->
<g id="edge12" class="edge"><title>33&#45;&gt;16</title>
<path fill="none" stroke="black" d="M99,-916.234C99,-928.151 99,-943.962 99,-957.518"/>
<polygon fill="black" stroke="black" points="95.5001,-957.79 99,-967.79 102.5,-957.79 95.5001,-957.79"/>
<text text-anchor="middle" x="106.5" y="-936.9" font-family="Times,serif" font-size="14.00"> &#160;1</text>
</g>
<!-- 66 -->
<g id="node14" class="node"><title>66</title>
<ellipse fill="#f4cae4" stroke="black" cx="27" cy="-810" rx="27" ry="18"/>
<text text-anchor="middle" x="27" y="-804.9" font-family="Times,serif" font-size="14.00">0</text>
</g>
<!-- 66&#45;&gt;33 -->
<g id="edge14" class="edge"><title>66&#45;&gt;33</title>
<path fill="none" stroke="black" d="M40.2059,-826.141C50.6876,-838.952 65.5488,-857.115 77.7072,-871.976"/>
<polygon fill="black" stroke="black" points="75.0976,-874.313 84.1389,-879.836 80.5153,-869.88 75.0976,-874.313"/>
</g>
<!-- 67 -->
<g id="node16" class="node"><title>67</title>
<polygon fill="white" stroke="black" points="126,-828 72,-828 72,-792 126,-792 126,-828"/>
<text text-anchor="middle" x="99" y="-804.9" font-family="Times,serif" font-size="14.00">9 (1)</text>
</g>
<!-- 67&#45;&gt;33 -->
<g id="edge16" class="edge"><title>67&#45;&gt;33</title>
<path fill="none" stroke="black" d="M99,-828.234C99,-840.151 99,-855.962 99,-869.518"/>
<polygon fill="black" stroke="black" points="95.5001,-869.79 99,-879.79 102.5,-869.79 95.5001,-869.79"/>
<text text-anchor="middle" x="106.5" y="-848.9" font-family="Times,serif" font-size="14.00"> &#160;1</text>
</g>
<!-- 134 -->
<g id="node18" class="node"><title>134</title>
<ellipse fill="#f4cae4" stroke="black" cx="27" cy="-722" rx="27" ry="18"/>
<text text-anchor="middle" x="27" y="-716.9" font-family="Times,serif" font-size="14.00">0</text>
</g>
<!-- 134&#45;&gt;67 -->
<g id="edge18" class="edge"><title>134&#45;&gt;67</title>
<path fill="none" stroke="black" d="M40.2059,-738.141C50.6876,-750.952 65.5488,-769.115 77.7072,-783.976"/>
<polygon fill="black" stroke="black" points="75.0976,-786.313 84.1389,-791.836 80.5153,-781.88 75.0976,-786.313"/>
</g>
<!-- 135 -->
<g id="node20" class="node"><title>135</title>
<polygon fill="white" stroke="black" points="126,-740 72,-740 72,-704 126,-704 126,-740"/>
<text text-anchor="middle" x="99" y="-716.9" font-family="Times,serif" font-size="14.00">8 (1)</text>
</g>
<!-- 135&#45;&gt;67 -->
<g id="edge20" class="edge"><title>135&#45;&gt;67</title>
<path fill="none" stroke="black" d="M99,-740.234C99,-752.151 99,-767.962 99,-781.518"/>
<polygon fill="black" stroke="black" points="95.5001,-781.79 99,-791.79 102.5,-781.79 95.5001,-781.79"/>
<text text-anchor="middle" x="106.5" y="-760.9" font-family="Times,serif" font-size="14.00"> &#160;1</text>
</g>
<!-- 270 -->
<g id="node22" class="node"><title>270</title>
<ellipse fill="#f4cae4" stroke="black" cx="65" cy="-634" rx="27" ry="18"/>
<text text-anchor="middle" x="65" y="-628.9" font-family="Times,serif" font-size="14.00">0</text>
</g>
<!-- 270&#45;&gt;135 -->
<g id="edge22" class="edge"><title>270&#45;&gt;135</title>
<path fill="none" stroke="black" d="M71.8804,-651.808C76.5959,-664.013 82.9447,-680.445 88.3139,-694.342"/>
<polygon fill="black" stroke="black" points="85.1443,-695.85 92.0131,-703.916 91.6739,-693.327 85.1443,-695.85"/>
</g>
<!-- 271 -->
<g id="node24" class="node"><title>271</title>
<polygon fill="white" stroke="black" points="164,-652 110,-652 110,-616 164,-616 164,-652"/>
<text text-anchor="middle" x="137" y="-628.9" font-family="Times,serif" font-size="14.00">7 (1)</text>
</g>
<!-- 271&#45;&gt;135 -->
<g id="edge24" class="edge"><title>271&#45;&gt;135</title>
<path fill="none" stroke="black" d="M129.126,-652.234C123.878,-664.387 116.882,-680.589 110.952,-694.321"/>
<polygon fill="black" stroke="black" points="107.615,-693.222 106.864,-703.79 114.041,-695.997 107.615,-693.222"/>
<text text-anchor="middle" x="129.5" y="-672.9" font-family="Times,serif" font-size="14.00"> &#160;1</text>
</g>
<!-- 542 -->
<g id="node26" class="node"><title>542</title>
<ellipse fill="#f4cae4" stroke="black" cx="103" cy="-546" rx="27" ry="18"/>
<text text-anchor="middle" x="103" y="-540.9" font-family="Times,serif" font-size="14.00">0</text>
</g>
<!-- 542&#45;&gt;271 -->
<g id="edge26" class="edge"><title>542&#45;&gt;271</title>
<path fill="none" stroke="black" d="M109.88,-563.808C114.596,-576.013 120.945,-592.445 126.314,-606.342"/>
<polygon fill="black" stroke="black" points="123.144,-607.85 130.013,-615.916 129.674,-605.327 123.144,-607.85"/>
</g>
<!-- 543 -->
<g id="node28" class="node"><title>543</title>
<polygon fill="white" stroke="black" points="202,-564 148,-564 148,-528 202,-528 202,-564"/>
<text text-anchor="middle" x="175" y="-540.9" font-family="Times,serif" font-size="14.00">6 (1)</text>
</g>
<!-- 543&#45;&gt;271 -->
<g id="edge28" class="edge"><title>543&#45;&gt;271</title>
<path fill="none" stroke="black" d="M167.126,-564.234C161.878,-576.387 154.882,-592.589 148.952,-606.321"/>
<polygon fill="black" stroke="black" points="145.615,-605.222 144.864,-615.79 152.041,-607.997 145.615,-605.222"/>
<text text-anchor="middle" x="167.5" y="-584.9" font-family="Times,serif" font-size="14.00"> &#160;1</text>
</g>
<!-- 1086 -->
<g id="node30" class="node"><title>1086</title>
<ellipse fill="#f4cae4" stroke="black" cx="141" cy="-458" rx="27" ry="18"/>
<text text-anchor="middle" x="141" y="-452.9" font-family="Times,serif" font-size="14.00">0</text>
</g>
<!-- 1086&#45;&gt;543 -->
<g id="edge30" class="edge"><title>1086&#45;&gt;543</title>
<path fill="none" stroke="black" d="M147.88,-475.808C152.596,-488.013 158.945,-504.445 164.314,-518.342"/>
<polygon fill="black" stroke="black" points="161.144,-519.85 168.013,-527.916 167.674,-517.327 161.144,-519.85"/>
</g>
<!-- 1087 -->
<g id="node32" class="node"><title>1087</title>
<polygon fill="white" stroke="black" points="240,-476 186,-476 186,-440 240,-440 240,-476"/>
<text text-anchor="middle" x="213" y="-452.9" font-family="Times,serif" font-size="14.00">5 (1)</text>
</g>
<!-- 1087&#45;&gt;543 -->
<g id="edge32" class="edge"><title>1087&#45;&gt;543</title>
<path fill="none" stroke="black" d="M205.126,-476.234C199.878,-488.387 192.882,-504.589 186.952,-518.321"/>
<polygon fill="black" stroke="black" points="183.615,-517.222 182.864,-527.79 190.041,-519.997 183.615,-517.222"/>
<text text-anchor="middle" x="205.5" y="-496.9" font-family="Times,serif" font-size="14.00"> &#160;1</text>
</g>
<!-- 2174 -->
<g id="node34" class="node"><title>2174</title>
<ellipse fill="#f4cae4" stroke="black" cx="177" cy="-370" rx="27" ry="18"/>
<text text-anchor="middle" x="177" y="-364.9" font-family="Times,serif" font-size="14.00">0</text>
</g>
<!-- 2174&#45;&gt;1087 -->
<g id="edge34" class="edge"><title>2174&#45;&gt;1087</title>
<path fill="none" stroke="black" d="M184.112,-387.386C189.092,-399.559 195.853,-416.084 201.582,-430.088"/>
<polygon fill="black" stroke="black" points="198.505,-431.811 205.531,-439.741 204.984,-429.161 198.505,-431.811"/>
</g>
<!-- 2175 -->
<g id="node36" class="node"><title>2175</title>
<polygon fill="white" stroke="black" points="276,-388 222,-388 222,-352 276,-352 276,-388"/>
<text text-anchor="middle" x="249" y="-364.9" font-family="Times,serif" font-size="14.00">4 (1)</text>
</g>
<!-- 2175&#45;&gt;1087 -->
<g id="edge36" class="edge"><title>2175&#45;&gt;1087</title>
<path fill="none" stroke="black" d="M241.541,-388.234C236.569,-400.387 229.941,-416.589 224.323,-430.321"/>
<polygon fill="black" stroke="black" points="220.997,-429.209 220.45,-439.79 227.475,-431.859 220.997,-429.209"/>
<text text-anchor="middle" x="242.5" y="-408.9" font-family="Times,serif" font-size="14.00"> &#160;1</text>
</g>
<!-- 4350 -->
<g id="node38" class="node"><title>4350</title>
<ellipse fill="#f4cae4" stroke="black" cx="213" cy="-282" rx="27" ry="18"/>
<text text-anchor="middle" x="213" y="-276.9" font-family="Times,serif" font-size="14.00">0</text>
</g>
<!-- 4350&#45;&gt;2175 -->
<g id="edge38" class="edge"><title>4350&#45;&gt;2175</title>
<path fill="none" stroke="black" d="M220.112,-299.386C225.092,-311.559 231.853,-328.084 237.582,-342.088"/>
<polygon fill="black" stroke="black" points="234.505,-343.811 241.531,-351.741 240.984,-341.161 234.505,-343.811"/>
</g>
<!-- 4351 -->
<g id="node40" class="node"><title>4351</title>
<polygon fill="white" stroke="black" points="312,-300 258,-300 258,-264 312,-264 312,-300"/>
<text text-anchor="middle" x="285" y="-276.9" font-family="Times,serif" font-size="14.00">3 (1)</text>
</g>
<!-- 4351&#45;&gt;2175 -->
<g id="edge40" class="edge"><title>4351&#45;&gt;2175</title>
<path fill="none" stroke="black" d="M277.541,-300.234C272.569,-312.387 265.941,-328.589 260.323,-342.321"/>
<polygon fill="black" stroke="black" points="256.997,-341.209 256.45,-351.79 263.475,-343.859 256.997,-341.209"/>
<text text-anchor="middle" x="278.5" y="-320.9" font-family="Times,serif" font-size="14.00"> &#160;1</text>
</g>
<!-- 8702 -->
<g id="node42" class="node"><title>8702</title>
<ellipse fill="#f4cae4" stroke="black" cx="249" cy="-194" rx="27" ry="18"/>
<text text-anchor="middle" x="249" y="-188.9" font-family="Times,serif" font-size="14.00">0</text>
</g>
<!-- 8702&#45;&gt;4351 -->
<g id="edge42" class="edge"><title>8702&#45;&gt;4351</title>
<path fill="none" stroke="black" d="M256.112,-211.386C261.092,-223.559 267.853,-240.084 273.582,-254.088"/>
<polygon fill="black" stroke="black" points="270.505,-255.811 277.531,-263.741 276.984,-253.161 270.505,-255.811"/>
</g>
<!-- 8703 -->
<g id="node44" class="node"><title>8703</title>
<polygon fill="white" stroke="black" points="348,-212 294,-212 294,-176 348,-176 348,-212"/>
<text text-anchor="middle" x="321" y="-188.9" font-family="Times,serif" font-size="14.00">2 (1)</text>
</g>
<!-- 8703&#45;&gt;4351 -->
<g id="edge44" class="edge"><title>8703&#45;&gt;4351</title>
<path fill="none" stroke="black" d="M313.541,-212.234C308.569,-224.387 301.941,-240.589 296.323,-254.321"/>
<polygon fill="black" stroke="black" points="292.997,-253.209 292.45,-263.79 299.475,-255.859 292.997,-253.209"/>
<text text-anchor="middle" x="314.5" y="-232.9" font-family="Times,serif" font-size="14.00"> &#160;1</text>
</g>
<!-- 17406 -->
<g id="node46" class="node"><title>17406</title>
<ellipse fill="#f4cae4" stroke="black" cx="285" cy="-106" rx="27" ry="18"/>
<text text-anchor="middle" x="285" y="-100.9" font-family="Times,serif" font-size="14.00">0</text>
</g>
<!-- 17406&#45;&gt;8703 -->
<g id="edge46" class="edge"><title>17406&#45;&gt;8703</title>
<path fill="none" stroke="black" d="M292.112,-123.386C297.092,-135.559 303.853,-152.084 309.582,-166.088"/>
<polygon fill="black" stroke="black" points="306.505,-167.811 313.531,-175.741 312.984,-165.161 306.505,-167.811"/>
</g>
<!-- 17407 -->
<g id="node48" class="node"><title>17407</title>
<polygon fill="white" stroke="black" points="384,-124 330,-124 330,-88 384,-88 384,-124"/>
<text text-anchor="middle" x="357" y="-100.9" font-family="Times,serif" font-size="14.00">1 (1)</text>
</g>
<!-- 17407&#45;&gt;8703 -->
<g id="edge48" class="edge"><title>17407&#45;&gt;8703</title>
<path fill="none" stroke="black" d="M349.541,-124.234C344.569,-136.387 337.941,-152.589 332.323,-166.321"/>
<polygon fill="black" stroke="black" points="328.997,-165.209 328.45,-175.79 335.475,-167.859 328.997,-165.209"/>
<text text-anchor="middle" x="350.5" y="-144.9" font-family="Times,serif" font-size="14.00"> &#160;1</text>
</g>
<!-- 34814 -->
<g id="node50" class="node"><title>34814</title>
<ellipse fill="#f4cae4" stroke="black" cx="321" cy="-18" rx="27" ry="18"/>
<text text-anchor="middle" x="321" y="-12.9" font-family="Times,serif" font-size="14.00">0</text>
</g>
<!-- 34814&#45;&gt;17407 -->
<g id="edge50" class="edge"><title>34814&#45;&gt;17407</title>
<path fill="none" stroke="black" d="M328.112,-35.386C333.092,-47.5585 339.853,-64.0841 345.582,-78.0881"/>
<polygon fill="black" stroke="black" points="342.505,-79.8111 349.531,-87.7413 348.984,-77.1606 342.505,-79.8111"/>
</g>
<!-- 34815 -->
<g id="node52" class="node"><title>34815</title>
<ellipse fill="#b3e2cd" stroke="black" cx="393" cy="-18" rx="27" ry="18"/>
<text text-anchor="middle" x="393" y="-12.9" font-family="Times,serif" font-size="14.00">1</text>
</g>
<!-- 34815&#45;&gt;17407 -->
<g id="edge52" class="edge"><title>34815&#45;&gt;17407</title>
<path fill="none" stroke="black" d="M385.888,-35.386C380.908,-47.5585 374.147,-64.0841 368.418,-78.0881"/>
<polygon fill="black" stroke="black" points="365.016,-77.1606 364.469,-87.7413 371.495,-79.8111 365.016,-77.1606"/>
<text text-anchor="middle" x="386.5" y="-56.9" font-family="Times,serif" font-size="14.00"> &#160;1</text>
</g>
<!-- 17 -->
<g id="node54" class="node"><title>17</title>
<polygon fill="white" stroke="black" points="304,-1004 248,-1004 248,-968 304,-968 304,-1004"/>
<text text-anchor="middle" x="276" y="-980.9" font-family="Times,serif" font-size="14.00">6 (5 1)</text>
</g>
<!-- 17&#45;&gt;8 -->
<g id="edge54" class="edge"><title>17&#45;&gt;8</title>
<path fill="none" stroke="black" d="M276,-1004.23C276,-1016.15 276,-1031.96 276,-1045.52"/>
<polygon fill="black" stroke="black" points="272.5,-1045.79 276,-1055.79 279.5,-1045.79 272.5,-1045.79"/>
<text text-anchor="middle" x="284" y="-1024.9" font-family="Times,serif" font-size="14.00"> &#160;5</text>
</g>
<!-- 34 -->
<g id="node56" class="node"><title>34</title>
<polygon fill="white" stroke="black" points="270,-916 216,-916 216,-880 270,-880 270,-916"/>
<text text-anchor="middle" x="243" y="-892.9" font-family="Times,serif" font-size="14.00">6 (1)</text>
</g>
<!-- 34&#45;&gt;17 -->
<g id="edge56" class="edge"><title>34&#45;&gt;17</title>
<path fill="none" stroke="black" d="M249.838,-916.234C254.395,-928.387 260.471,-944.589 265.62,-958.321"/>
<polygon fill="black" stroke="black" points="262.383,-959.655 269.171,-967.79 268.937,-957.197 262.383,-959.655"/>
</g>
<!-- 68 -->
<g id="node58" class="node"><title>68</title>
<ellipse fill="#f4cae4" stroke="black" cx="171" cy="-810" rx="27" ry="18"/>
<text text-anchor="middle" x="171" y="-804.9" font-family="Times,serif" font-size="14.00">0</text>
</g>
<!-- 68&#45;&gt;34 -->
<g id="edge58" class="edge"><title>68&#45;&gt;34</title>
<path fill="none" stroke="black" d="M184.206,-826.141C194.688,-838.952 209.549,-857.115 221.707,-871.976"/>
<polygon fill="black" stroke="black" points="219.098,-874.313 228.139,-879.836 224.515,-869.88 219.098,-874.313"/>
</g>
<!-- 69 -->
<g id="node60" class="node"><title>69</title>
<polygon fill="white" stroke="black" points="270,-828 216,-828 216,-792 270,-792 270,-828"/>
<text text-anchor="middle" x="243" y="-804.9" font-family="Times,serif" font-size="14.00">5 (1)</text>
</g>
<!-- 69&#45;&gt;34 -->
<g id="edge60" class="edge"><title>69&#45;&gt;34</title>
<path fill="none" stroke="black" d="M243,-828.234C243,-840.151 243,-855.962 243,-869.518"/>
<polygon fill="black" stroke="black" points="239.5,-869.79 243,-879.79 246.5,-869.79 239.5,-869.79"/>
<text text-anchor="middle" x="250.5" y="-848.9" font-family="Times,serif" font-size="14.00"> &#160;1</text>
</g>
<!-- 138 -->
<g id="node62" class="node"><title>138</title>
<ellipse fill="#f4cae4" stroke="black" cx="171" cy="-722" rx="27" ry="18"/>
<text text-anchor="middle" x="171" y="-716.9" font-family="Times,serif" font-size="14.00">0</text>
</g>
<!-- 138&#45;&gt;69 -->
<g id="edge62" class="edge"><title>138&#45;&gt;69</title>
<path fill="none" stroke="black" d="M184.206,-738.141C194.688,-750.952 209.549,-769.115 221.707,-783.976"/>
<polygon fill="black" stroke="black" points="219.098,-786.313 228.139,-791.836 224.515,-781.88 219.098,-786.313"/>
</g>
<!-- 139 -->
<g id="node64" class="node"><title>139</title>
<polygon fill="white" stroke="black" points="270,-740 216,-740 216,-704 270,-704 270,-740"/>
<text text-anchor="middle" x="243" y="-716.9" font-family="Times,serif" font-size="14.00">4 (1)</text>
</g>
<!-- 139&#45;&gt;69 -->
<g id="edge64" class="edge"><title>139&#45;&gt;69</title>
<path fill="none" stroke="black" d="M243,-740.234C243,-752.151 243,-767.962 243,-781.518"/>
<polygon fill="black" stroke="black" points="239.5,-781.79 243,-791.79 246.5,-781.79 239.5,-781.79"/>
<text text-anchor="middle" x="250.5" y="-760.9" font-family="Times,serif" font-size="14.00"> &#160;1</text>
</g>
<!-- 278 -->
<g id="node66" class="node"><title>278</title>
<ellipse fill="#f4cae4" stroke="black" cx="209" cy="-634" rx="27" ry="18"/>
<text text-anchor="middle" x="209" y="-628.9" font-family="Times,serif" font-size="14.00">0</text>
</g>
<!-- 278&#45;&gt;139 -->
<g id="edge66" class="edge"><title>278&#45;&gt;139</title>
<path fill="none" stroke="black" d="M215.88,-651.808C220.596,-664.013 226.945,-680.445 232.314,-694.342"/>
<polygon fill="black" stroke="black" points="229.144,-695.85 236.013,-703.916 235.674,-693.327 229.144,-695.85"/>
</g>
<!-- 279 -->
<g id="node68" class="node"><title>279</title>
<polygon fill="white" stroke="black" points="308,-652 254,-652 254,-616 308,-616 308,-652"/>
<text text-anchor="middle" x="281" y="-628.9" font-family="Times,serif" font-size="14.00">3 (1)</text>
</g>
<!-- 279&#45;&gt;139 -->
<g id="edge68" class="edge"><title>279&#45;&gt;139</title>
<path fill="none" stroke="black" d="M273.126,-652.234C267.878,-664.387 260.882,-680.589 254.952,-694.321"/>
<polygon fill="black" stroke="black" points="251.615,-693.222 250.864,-703.79 258.041,-695.997 251.615,-693.222"/>
<text text-anchor="middle" x="273.5" y="-672.9" font-family="Times,serif" font-size="14.00"> &#160;1</text>
</g>
<!-- 558 -->
<g id="node70" class="node"><title>558</title>
<ellipse fill="#f4cae4" stroke="black" cx="247" cy="-546" rx="27" ry="18"/>
<text text-anchor="middle" x="247" y="-540.9" font-family="Times,serif" font-size="14.00">0</text>
</g>
<!-- 558&#45;&gt;279 -->
<g id="edge70" class="edge"><title>558&#45;&gt;279</title>
<path fill="none" stroke="black" d="M253.88,-563.808C258.596,-576.013 264.945,-592.445 270.314,-606.342"/>
<polygon fill="black" stroke="black" points="267.144,-607.85 274.013,-615.916 273.674,-605.327 267.144,-607.85"/>
</g>
<!-- 559 -->
<g id="node72" class="node"><title>559</title>
<polygon fill="white" stroke="black" points="346,-564 292,-564 292,-528 346,-528 346,-564"/>
<text text-anchor="middle" x="319" y="-540.9" font-family="Times,serif" font-size="14.00">2 (1)</text>
</g>
<!-- 559&#45;&gt;279 -->
<g id="edge72" class="edge"><title>559&#45;&gt;279</title>
<path fill="none" stroke="black" d="M311.126,-564.234C305.878,-576.387 298.882,-592.589 292.952,-606.321"/>
<polygon fill="black" stroke="black" points="289.615,-605.222 288.864,-615.79 296.041,-607.997 289.615,-605.222"/>
<text text-anchor="middle" x="311.5" y="-584.9" font-family="Times,serif" font-size="14.00"> &#160;1</text>
</g>
<!-- 1118 -->
<g id="node74" class="node"><title>1118</title>
<ellipse fill="#f4cae4" stroke="black" cx="302" cy="-458" rx="27" ry="18"/>
<text text-anchor="middle" x="302" y="-452.9" font-family="Times,serif" font-size="14.00">0</text>
</g>
<!-- 1118&#45;&gt;559 -->
<g id="edge74" class="edge"><title>1118&#45;&gt;559</title>
<path fill="none" stroke="black" d="M305.522,-476.234C307.847,-488.269 310.94,-504.275 313.576,-517.92"/>
<polygon fill="black" stroke="black" points="310.149,-518.635 315.482,-527.79 317.022,-517.307 310.149,-518.635"/>
</g>
<!-- 1119 -->
<g id="node76" class="node"><title>1119</title>
<polygon fill="white" stroke="black" points="401,-476 347,-476 347,-440 401,-440 401,-476"/>
<text text-anchor="middle" x="374" y="-452.9" font-family="Times,serif" font-size="14.00">1 (1)</text>
</g>
<!-- 1119&#45;&gt;559 -->
<g id="edge76" class="edge"><title>1119&#45;&gt;559</title>
<path fill="none" stroke="black" d="M362.604,-476.234C354.861,-488.623 344.487,-505.22 335.801,-519.118"/>
<polygon fill="black" stroke="black" points="332.713,-517.455 330.381,-527.79 338.649,-521.165 332.713,-517.455"/>
<text text-anchor="middle" x="359.5" y="-496.9" font-family="Times,serif" font-size="14.00"> &#160;1</text>
</g>
<!-- 2238 -->
<g id="node78" class="node"><title>2238</title>
<ellipse fill="#f4cae4" stroke="black" cx="347" cy="-370" rx="27" ry="18"/>
<text text-anchor="middle" x="347" y="-364.9" font-family="Times,serif" font-size="14.00">0</text>
</g>
<!-- 2238&#45;&gt;1119 -->
<g id="edge78" class="edge"><title>2238&#45;&gt;1119</title>
<path fill="none" stroke="black" d="M352.464,-387.808C356.209,-400.013 361.25,-416.445 365.514,-430.342"/>
<polygon fill="black" stroke="black" points="362.172,-431.383 368.452,-439.916 368.864,-429.33 362.172,-431.383"/>
</g>
<!-- 2239 -->
<g id="node80" class="node"><title>2239</title>
<ellipse fill="#b3e2cd" stroke="black" cx="419" cy="-370" rx="27" ry="18"/>
<text text-anchor="middle" x="419" y="-364.9" font-family="Times,serif" font-size="14.00">1</text>
</g>
<!-- 2239&#45;&gt;1119 -->
<g id="edge80" class="edge"><title>2239&#45;&gt;1119</title>
<path fill="none" stroke="black" d="M410.109,-387.386C403.824,-399.677 395.27,-416.405 388.065,-430.495"/>
<polygon fill="black" stroke="black" points="384.774,-429.244 383.337,-439.741 391.006,-432.431 384.774,-429.244"/>
<text text-anchor="middle" x="408.5" y="-408.9" font-family="Times,serif" font-size="14.00"> &#160;1</text>
</g>
<!-- 35 -->
<g id="node82" class="node"><title>35</title>
<polygon fill="white" stroke="black" points="342,-916 288,-916 288,-880 342,-880 342,-916"/>
<text text-anchor="middle" x="315" y="-892.9" font-family="Times,serif" font-size="14.00">1 (5 1)</text>
</g>
<!-- 35&#45;&gt;17 -->
<g id="edge82" class="edge"><title>35&#45;&gt;17</title>
<path fill="none" stroke="black" d="M306.919,-916.234C301.533,-928.387 294.352,-944.589 288.267,-958.321"/>
<polygon fill="black" stroke="black" points="284.922,-957.229 284.07,-967.79 291.322,-960.065 284.922,-957.229"/>
<text text-anchor="middle" x="307" y="-936.9" font-family="Times,serif" font-size="14.00"> &#160;5</text>
</g>
<!-- 70 -->
<g id="node84" class="node"><title>70</title>
<polygon fill="white" stroke="black" points="342,-828 288,-828 288,-792 342,-792 342,-828"/>
<text text-anchor="middle" x="315" y="-804.9" font-family="Times,serif" font-size="14.00">1 (1)</text>
</g>
<!-- 70&#45;&gt;35 -->
<g id="edge84" class="edge"><title>70&#45;&gt;35</title>
<path fill="none" stroke="black" d="M315,-828.234C315,-840.151 315,-855.962 315,-869.518"/>
<polygon fill="black" stroke="black" points="311.5,-869.79 315,-879.79 318.5,-869.79 311.5,-869.79"/>
</g>
<!-- 140 -->
<g id="node86" class="node"><title>140</title>
<ellipse fill="#f4cae4" stroke="black" cx="315" cy="-722" rx="27" ry="18"/>
<text text-anchor="middle" x="315" y="-716.9" font-family="Times,serif" font-size="14.00">0</text>
</g>
<!-- 140&#45;&gt;70 -->
<g id="edge86" class="edge"><title>140&#45;&gt;70</title>
<path fill="none" stroke="black" d="M315,-740.234C315,-752.151 315,-767.962 315,-781.518"/>
<polygon fill="black" stroke="black" points="311.5,-781.79 315,-791.79 318.5,-781.79 311.5,-781.79"/>
</g>
<!-- 141 -->
<g id="node88" class="node"><title>141</title>
<ellipse fill="#b3e2cd" stroke="black" cx="387" cy="-722" rx="27" ry="18"/>
<text text-anchor="middle" x="387" y="-716.9" font-family="Times,serif" font-size="14.00">1</text>
</g>
<!-- 141&#45;&gt;70 -->
<g id="edge88" class="edge"><title>141&#45;&gt;70</title>
<path fill="none" stroke="black" d="M373.794,-738.141C363.312,-750.952 348.451,-769.115 336.293,-783.976"/>
<polygon fill="black" stroke="black" points="333.485,-781.88 329.861,-791.836 338.902,-786.313 333.485,-781.88"/>
<text text-anchor="middle" x="365.5" y="-760.9" font-family="Times,serif" font-size="14.00"> &#160;1</text>
</g>
<!-- 71 -->
<g id="node90" class="node"><title>71</title>
<ellipse fill="#fdcdac" stroke="black" cx="387" cy="-810" rx="27" ry="18"/>
<text text-anchor="middle" x="387" y="-804.9" font-family="Times,serif" font-size="14.00">0</text>
</g>
<!-- 71&#45;&gt;35 -->
<g id="edge90" class="edge"><title>71&#45;&gt;35</title>
<path fill="none" stroke="black" d="M373.794,-826.141C363.312,-838.952 348.451,-857.115 336.293,-871.976"/>
<polygon fill="black" stroke="black" points="333.485,-869.88 329.861,-879.836 338.902,-874.313 333.485,-869.88"/>
<text text-anchor="middle" x="366" y="-848.9" font-family="Times,serif" font-size="14.00"> &#160;5</text>
</g>
<!-- 9 -->
<g id="node92" class="node"><title>9</title>
<polygon fill="white" stroke="black" points="495,-1092 423,-1092 423,-1056 495,-1056 495,-1092"/>
<text text-anchor="middle" x="459" y="-1068.9" font-family="Times,serif" font-size="14.00">1 (10 5 1)</text>
</g>
<!-- 9&#45;&gt;4 -->
<g id="edge92" class="edge"><title>9&#45;&gt;4</title>
<path fill="none" stroke="black" d="M434.222,-1092.02C416.072,-1105.22 391.241,-1123.28 371.349,-1137.75"/>
<polygon fill="black" stroke="black" points="369.19,-1134.99 363.161,-1143.7 373.307,-1140.65 369.19,-1134.99"/>
<text text-anchor="middle" x="421" y="-1112.9" font-family="Times,serif" font-size="14.00"> &#160;10</text>
</g>
<!-- 18 -->
<g id="node94" class="node"><title>18</title>
<polygon fill="white" stroke="black" points="486,-1004 432,-1004 432,-968 486,-968 486,-1004"/>
<text text-anchor="middle" x="459" y="-980.9" font-family="Times,serif" font-size="14.00">1 (5 1)</text>
</g>
<!-- 18&#45;&gt;9 -->
<g id="edge94" class="edge"><title>18&#45;&gt;9</title>
<path fill="none" stroke="black" d="M459,-1004.23C459,-1016.15 459,-1031.96 459,-1045.52"/>
<polygon fill="black" stroke="black" points="455.5,-1045.79 459,-1055.79 462.5,-1045.79 455.5,-1045.79"/>
</g>
<!-- 36 -->
<g id="node96" class="node"><title>36</title>
<polygon fill="white" stroke="black" points="486,-916 432,-916 432,-880 486,-880 486,-916"/>
<text text-anchor="middle" x="459" y="-892.9" font-family="Times,serif" font-size="14.00">1 (1)</text>
</g>
<!-- 36&#45;&gt;18 -->
<g id="edge96" class="edge"><title>36&#45;&gt;18</title>
<path fill="none" stroke="black" d="M459,-916.234C459,-928.151 459,-943.962 459,-957.518"/>
<polygon fill="black" stroke="black" points="455.5,-957.79 459,-967.79 462.5,-957.79 455.5,-957.79"/>
</g>
<!-- 72 -->
<g id="node98" class="node"><title>72</title>
<ellipse fill="#f4cae4" stroke="black" cx="459" cy="-810" rx="27" ry="18"/>
<text text-anchor="middle" x="459" y="-804.9" font-family="Times,serif" font-size="14.00">0</text>
</g>
<!-- 72&#45;&gt;36 -->
<g id="edge98" class="edge"><title>72&#45;&gt;36</title>
<path fill="none" stroke="black" d="M459,-828.234C459,-840.151 459,-855.962 459,-869.518"/>
<polygon fill="black" stroke="black" points="455.5,-869.79 459,-879.79 462.5,-869.79 455.5,-869.79"/>
</g>
<!-- 73 -->
<g id="node100" class="node"><title>73</title>
<ellipse fill="#b3e2cd" stroke="black" cx="531" cy="-810" rx="27" ry="18"/>
<text text-anchor="middle" x="531" y="-804.9" font-family="Times,serif" font-size="14.00">1</text>
</g>
<!-- 73&#45;&gt;36 -->
<g id="edge100" class="edge"><title>73&#45;&gt;36</title>
<path fill="none" stroke="black" d="M517.794,-826.141C507.312,-838.952 492.451,-857.115 480.293,-871.976"/>
<polygon fill="black" stroke="black" points="477.485,-869.88 473.861,-879.836 482.902,-874.313 477.485,-869.88"/>
<text text-anchor="middle" x="509.5" y="-848.9" font-family="Times,serif" font-size="14.00"> &#160;1</text>
</g>
<!-- 37 -->
<g id="node102" class="node"><title>37</title>
<ellipse fill="#fdcdac" stroke="black" cx="531" cy="-898" rx="27" ry="18"/>
<text text-anchor="middle" x="531" y="-892.9" font-family="Times,serif" font-size="14.00">0</text>
</g>
<!-- 37&#45;&gt;18 -->
<g id="edge102" class="edge"><title>37&#45;&gt;18</title>
<path fill="none" stroke="black" d="M517.794,-914.141C507.312,-926.952 492.451,-945.115 480.293,-959.976"/>
<polygon fill="black" stroke="black" points="477.485,-957.88 473.861,-967.836 482.902,-962.313 477.485,-957.88"/>
<text text-anchor="middle" x="510" y="-936.9" font-family="Times,serif" font-size="14.00"> &#160;5</text>
</g>
<!-- 19 -->
<g id="node104" class="node"><title>19</title>
<ellipse fill="#fdcdac" stroke="black" cx="531" cy="-986" rx="27" ry="18"/>
<text text-anchor="middle" x="531" y="-980.9" font-family="Times,serif" font-size="14.00">0</text>
</g>
<!-- 19&#45;&gt;9 -->
<g id="edge104" class="edge"><title>19&#45;&gt;9</title>
<path fill="none" stroke="black" d="M517.794,-1002.14C507.312,-1014.95 492.451,-1033.12 480.293,-1047.98"/>
<polygon fill="black" stroke="black" points="477.485,-1045.88 473.861,-1055.84 482.902,-1050.31 477.485,-1045.88"/>
<text text-anchor="middle" x="513" y="-1024.9" font-family="Times,serif" font-size="14.00"> &#160;10</text>
</g>
<!-- 5 -->
<g id="node106" class="node"><title>5</title>
<ellipse fill="#fdcdac" stroke="black" cx="423" cy="-1162" rx="27" ry="18"/>
<text text-anchor="middle" x="423" y="-1156.9" font-family="Times,serif" font-size="14.00">0</text>
</g>
<!-- 5&#45;&gt;2 -->
<g id="edge106" class="edge"><title>5&#45;&gt;2</title>
<path fill="none" stroke="black" d="M418.548,-1179.81C415.526,-1191.89 411.468,-1208.13 408.016,-1221.94"/>
<polygon fill="black" stroke="black" points="404.551,-1221.37 405.521,-1231.92 411.342,-1223.06 404.551,-1221.37"/>
<text text-anchor="middle" x="425" y="-1200.9" font-family="Times,serif" font-size="14.00"> &#160;25</text>
</g>
<!-- 3 -->
<g id="node108" class="node"><title>3</title>
<ellipse fill="#fdcdac" stroke="black" cx="495" cy="-1250" rx="27" ry="18"/>
<text text-anchor="middle" x="495" y="-1244.9" font-family="Times,serif" font-size="14.00">0</text>
</g>
<!-- 3&#45;&gt;1 -->
<g id="edge108" class="edge"><title>3&#45;&gt;1</title>
<path fill="none" stroke="black" d="M488.524,-1267.81C484.086,-1280.01 478.111,-1296.45 473.057,-1310.34"/>
<polygon fill="black" stroke="black" points="469.704,-1309.32 469.576,-1319.92 476.283,-1311.71 469.704,-1309.32"/>
<text text-anchor="middle" x="493.5" y="-1288.9" font-family="Times,serif" font-size="14.00"> &#160;50</text>
</g>
</g>
</svg>
