<?xml version="1.0" encoding="UTF-8" standalone="no"?>
<!-- Created with Inkscape (http://www.inkscape.org/) -->

<svg
   xmlns:dc="http://purl.org/dc/elements/1.1/"
   xmlns:cc="http://creativecommons.org/ns#"
   xmlns:rdf="http://www.w3.org/1999/02/22-rdf-syntax-ns#"
   xmlns:svg="http://www.w3.org/2000/svg"
   xmlns="http://www.w3.org/2000/svg"
   xmlns:sodipodi="http://sodipodi.sourceforge.net/DTD/sodipodi-0.dtd"
   xmlns:inkscape="http://www.inkscape.org/namespaces/inkscape"
   width="190.5246mm"
   height="84.295952mm"
   viewBox="0 0 190.5246 84.295952"
   version="1.1"
   id="svg39274"
   inkscape:version="0.92.5 (2060ec1f9f, 2020-04-08)"
   sodipodi:docname="2.12.svg">
  <defs
     id="defs39268">
    <clipPath
       id="clipPath11501"
       clipPathUnits="userSpaceOnUse">
      <path
         inkscape:connector-curvature="0"
         id="path11499"
         d="M 640,320 H 320 v 320 h 320 z" />
    </clipPath>
    <clipPath
       id="clipPath11507"
       clipPathUnits="userSpaceOnUse">
      <path
         inkscape:connector-curvature="0"
         id="path11505"
         d="M 320,320 H 640 V 640 H 320 Z" />
    </clipPath>
  </defs>
  <sodipodi:namedview
     id="base"
     pagecolor="#ffffff"
     bordercolor="#666666"
     borderopacity="1.0"
     inkscape:pageopacity="0.0"
     inkscape:pageshadow="2"
     inkscape:zoom="1.979899"
     inkscape:cx="268.58206"
     inkscape:cy="36.613105"
     inkscape:document-units="mm"
     inkscape:current-layer="layer1"
     showgrid="false"
     fit-margin-top="0"
     fit-margin-left="0"
     fit-margin-right="0"
     fit-margin-bottom="0"
     inkscape:window-width="3840"
     inkscape:window-height="2160"
     inkscape:window-x="0"
     inkscape:window-y="0"
     inkscape:window-maximized="0" />
  <metadata
     id="metadata39271">
    <rdf:RDF>
      <cc:Work
         rdf:about="">
        <dc:format>image/svg+xml</dc:format>
        <dc:type
           rdf:resource="http://purl.org/dc/dcmitype/StillImage" />
        <dc:title />
      </cc:Work>
    </rdf:RDF>
  </metadata>
  <g
     inkscape:label="Layer 1"
     inkscape:groupmode="layer"
     id="layer1"
     transform="translate(-11.306295,-78.706592)">
    <g
       id="g40102"
       transform="rotate(-180,159.48526,120.80822)">
      <g
         transform="matrix(0.13236847,0,0,-0.13171242,74.781723,162.90985)"
         id="g11495">
        <g
           clip-path="url(#clipPath11501)"
           id="g11497">
          <g
             clip-path="url(#clipPath11507)"
             id="g11503">
            <path
               inkscape:connector-curvature="0"
               id="path11509"
               style="fill:#ffffff;fill-opacity:1;fill-rule:nonzero;stroke:none"
               d="M 640,320 H 320 v 320 h 320 z" />
            <g
               transform="matrix(-0.1290323,0,0,-0.1290323,639.1887,639.4392)"
               id="g11511">
              <path
                 inkscape:connector-curvature="0"
                 id="path11513"
                 style="fill:none;stroke:#000000;stroke-width:32;stroke-linecap:butt;stroke-linejoin:miter;stroke-miterlimit:4;stroke-dasharray:none;stroke-opacity:1"
                 d="M 0,337.9136 360.0638,960.9832 748.257,804.3163 989.4778,808.2415 854.048,330.0269 972.3642,-0.00297285" />
            </g>
            <g
               transform="matrix(-0.1290323,0,0,-0.1290323,446.3059,639.3426)"
               id="g11515">
              <path
                 inkscape:connector-curvature="0"
                 id="path11517"
                 style="fill:none;stroke:#000000;stroke-width:32;stroke-linecap:butt;stroke-linejoin:miter;stroke-miterlimit:4;stroke-dasharray:none;stroke-opacity:1"
                 d="M 16.97412,-0.00327485 113.7169,306.9771 0,816.0649 370.8502,803.1442 982.2908,1616.845" />
            </g>
            <g
               transform="matrix(-0.1290323,0,0,-0.1290323,445.8261,467.8301)"
               id="g11519">
              <path
                 inkscape:connector-curvature="0"
                 id="path11521"
                 style="fill:none;stroke:#000000;stroke-width:32;stroke-linecap:butt;stroke-linejoin:miter;stroke-miterlimit:4;stroke-dasharray:none;stroke-opacity:1"
                 d="M 980.783,799.8669 0,0 381.7955,1146.917" />
            </g>
            <g
               transform="matrix(-0.1290323,0,0,-0.1290323,513.2358,419.2291)"
               id="g11523">
              <path
                 inkscape:connector-curvature="0"
                 id="path11525"
                 style="fill:none;stroke:#000000;stroke-width:32;stroke-linecap:butt;stroke-linejoin:miter;stroke-miterlimit:4;stroke-dasharray:none;stroke-opacity:1"
                 d="M 544.8712,771.5455 269.2168,0 0,773.3829" />
            </g>
            <g
               transform="matrix(-0.1290323,0,0,-0.1290323,639.2631,530.5281)"
               id="g11527">
              <path
                 inkscape:connector-curvature="0"
                 id="path11529"
                 style="fill:none;stroke:#000000;stroke-width:32;stroke-linecap:butt;stroke-linejoin:miter;stroke-miterlimit:4;stroke-dasharray:none;stroke-opacity:1"
                 d="M 625.7934,1626.409 867.6107,358.353 743.3661,112.7364 369.137,612.562 0,0" />
            </g>
          </g>
        </g>
      </g>
      <g
         id="g39932"
         transform="matrix(0.13236847,0,0,0.13171242,117.11507,36.465927)">
        <g
           id="g39930"
           clip-path="url(#clipPath11501)">
          <g
             id="g39928"
             clip-path="url(#clipPath11507)">
            <path
               d="M 640,320 H 320 v 320 h 320 z"
               style="fill:#ffffff;fill-opacity:1;fill-rule:nonzero;stroke:none"
               id="path39906"
               inkscape:connector-curvature="0" />
            <g
               id="g39910"
               transform="matrix(-0.1290323,0,0,-0.1290323,639.1887,639.4392)">
              <path
                 d="M 0,337.9136 360.0638,960.9832 748.257,804.3163 989.4778,808.2415 854.048,330.0269 972.3642,-0.00297285"
                 style="fill:none;stroke:#000000;stroke-width:32;stroke-linecap:butt;stroke-linejoin:miter;stroke-miterlimit:4;stroke-dasharray:none;stroke-opacity:1"
                 id="path39908"
                 inkscape:connector-curvature="0" />
            </g>
            <g
               id="g39914"
               transform="matrix(-0.1290323,0,0,-0.1290323,446.3059,639.3426)">
              <path
                 d="M 16.97412,-0.00327485 113.7169,306.9771 0,816.0649 370.8502,803.1442 982.2908,1616.845"
                 style="fill:none;stroke:#000000;stroke-width:32;stroke-linecap:butt;stroke-linejoin:miter;stroke-miterlimit:4;stroke-dasharray:none;stroke-opacity:1"
                 id="path39912"
                 inkscape:connector-curvature="0" />
            </g>
            <g
               id="g39918"
               transform="matrix(-0.1290323,0,0,-0.1290323,445.8261,467.8301)">
              <path
                 d="M 980.783,799.8669 0,0 381.7955,1146.917"
                 style="fill:none;stroke:#000000;stroke-width:32;stroke-linecap:butt;stroke-linejoin:miter;stroke-miterlimit:4;stroke-dasharray:none;stroke-opacity:1"
                 id="path39916"
                 inkscape:connector-curvature="0" />
            </g>
            <g
               id="g39922"
               transform="matrix(-0.1290323,0,0,-0.1290323,513.2358,419.2291)">
              <path
                 d="M 544.8712,771.5455 269.2168,0 0,773.3829"
                 style="fill:none;stroke:#000000;stroke-width:32;stroke-linecap:butt;stroke-linejoin:miter;stroke-miterlimit:4;stroke-dasharray:none;stroke-opacity:1"
                 id="path39920"
                 inkscape:connector-curvature="0" />
            </g>
            <g
               id="g39926"
               transform="matrix(-0.1290323,0,0,-0.1290323,639.2631,530.5281)">
              <path
                 d="M 625.7934,1626.409 867.6107,358.353 743.3661,112.7364 369.137,612.562 0,0"
                 style="fill:none;stroke:#000000;stroke-width:32;stroke-linecap:butt;stroke-linejoin:miter;stroke-miterlimit:4;stroke-dasharray:none;stroke-opacity:1"
                 id="path39924"
                 inkscape:connector-curvature="0" />
            </g>
          </g>
        </g>
      </g>
      <g
         id="g39960"
         transform="matrix(0.13236847,0,0,-0.13171242,74.781723,204.84297)">
        <g
           id="g39958"
           clip-path="url(#clipPath11501)">
          <g
             id="g39956"
             clip-path="url(#clipPath11507)">
            <path
               d="M 640,320 H 320 v 320 h 320 z"
               style="fill:#ffffff;fill-opacity:1;fill-rule:nonzero;stroke:none"
               id="path39934"
               inkscape:connector-curvature="0" />
            <g
               id="g39938"
               transform="matrix(-0.1290323,0,0,-0.1290323,639.1887,639.4392)">
              <path
                 d="M 0,337.9136 360.0638,960.9832 748.257,804.3163 989.4778,808.2415 854.048,330.0269 972.3642,-0.00297285"
                 style="fill:none;stroke:#000000;stroke-width:32;stroke-linecap:butt;stroke-linejoin:miter;stroke-miterlimit:4;stroke-dasharray:none;stroke-opacity:1"
                 id="path39936"
                 inkscape:connector-curvature="0" />
            </g>
            <g
               id="g39942"
               transform="matrix(-0.1290323,0,0,-0.1290323,446.3059,639.3426)">
              <path
                 d="M 16.97412,-0.00327485 113.7169,306.9771 0,816.0649 370.8502,803.1442 982.2908,1616.845"
                 style="fill:none;stroke:#000000;stroke-width:32;stroke-linecap:butt;stroke-linejoin:miter;stroke-miterlimit:4;stroke-dasharray:none;stroke-opacity:1"
                 id="path39940"
                 inkscape:connector-curvature="0" />
            </g>
            <g
               id="g39946"
               transform="matrix(-0.1290323,0,0,-0.1290323,445.8261,467.8301)">
              <path
                 d="M 980.783,799.8669 0,0 381.7955,1146.917"
                 style="fill:none;stroke:#000000;stroke-width:32;stroke-linecap:butt;stroke-linejoin:miter;stroke-miterlimit:4;stroke-dasharray:none;stroke-opacity:1"
                 id="path39944"
                 inkscape:connector-curvature="0" />
            </g>
            <g
               id="g39950"
               transform="matrix(-0.1290323,0,0,-0.1290323,513.2358,419.2291)">
              <path
                 d="M 544.8712,771.5455 269.2168,0 0,773.3829"
                 style="fill:none;stroke:#000000;stroke-width:32;stroke-linecap:butt;stroke-linejoin:miter;stroke-miterlimit:4;stroke-dasharray:none;stroke-opacity:1"
                 id="path39948"
                 inkscape:connector-curvature="0" />
            </g>
            <g
               id="g39954"
               transform="matrix(-0.1290323,0,0,-0.1290323,639.2631,530.5281)">
              <path
                 d="M 625.7934,1626.409 867.6107,358.353 743.3661,112.7364 369.137,612.562 0,0"
                 style="fill:none;stroke:#000000;stroke-width:32;stroke-linecap:butt;stroke-linejoin:miter;stroke-miterlimit:4;stroke-dasharray:none;stroke-opacity:1"
                 id="path39952"
                 inkscape:connector-curvature="0" />
            </g>
          </g>
        </g>
      </g>
      <g
         transform="matrix(0.13236847,0,0,0.13171242,117.11507,78.399039)"
         id="g39988">
        <g
           clip-path="url(#clipPath11501)"
           id="g39986">
          <g
             clip-path="url(#clipPath11507)"
             id="g39984">
            <path
               inkscape:connector-curvature="0"
               id="path39962"
               style="fill:#ffffff;fill-opacity:1;fill-rule:nonzero;stroke:none"
               d="M 640,320 H 320 v 320 h 320 z" />
            <g
               transform="matrix(-0.1290323,0,0,-0.1290323,639.1887,639.4392)"
               id="g39966">
              <path
                 inkscape:connector-curvature="0"
                 id="path39964"
                 style="fill:none;stroke:#000000;stroke-width:32;stroke-linecap:butt;stroke-linejoin:miter;stroke-miterlimit:4;stroke-dasharray:none;stroke-opacity:1"
                 d="M 0,337.9136 360.0638,960.9832 748.257,804.3163 989.4778,808.2415 854.048,330.0269 972.3642,-0.00297285" />
            </g>
            <g
               transform="matrix(-0.1290323,0,0,-0.1290323,446.3059,639.3426)"
               id="g39970">
              <path
                 inkscape:connector-curvature="0"
                 id="path39968"
                 style="fill:none;stroke:#000000;stroke-width:32;stroke-linecap:butt;stroke-linejoin:miter;stroke-miterlimit:4;stroke-dasharray:none;stroke-opacity:1"
                 d="M 16.97412,-0.00327485 113.7169,306.9771 0,816.0649 370.8502,803.1442 982.2908,1616.845" />
            </g>
            <g
               transform="matrix(-0.1290323,0,0,-0.1290323,445.8261,467.8301)"
               id="g39974">
              <path
                 inkscape:connector-curvature="0"
                 id="path39972"
                 style="fill:none;stroke:#000000;stroke-width:32;stroke-linecap:butt;stroke-linejoin:miter;stroke-miterlimit:4;stroke-dasharray:none;stroke-opacity:1"
                 d="M 980.783,799.8669 0,0 381.7955,1146.917" />
            </g>
            <g
               transform="matrix(-0.1290323,0,0,-0.1290323,513.2358,419.2291)"
               id="g39978">
              <path
                 inkscape:connector-curvature="0"
                 id="path39976"
                 style="fill:none;stroke:#000000;stroke-width:32;stroke-linecap:butt;stroke-linejoin:miter;stroke-miterlimit:4;stroke-dasharray:none;stroke-opacity:1"
                 d="M 544.8712,771.5455 269.2168,0 0,773.3829" />
            </g>
            <g
               transform="matrix(-0.1290323,0,0,-0.1290323,639.2631,530.5281)"
               id="g39982">
              <path
                 inkscape:connector-curvature="0"
                 id="path39980"
                 style="fill:none;stroke:#000000;stroke-width:32;stroke-linecap:butt;stroke-linejoin:miter;stroke-miterlimit:4;stroke-dasharray:none;stroke-opacity:1"
                 d="M 625.7934,1626.409 867.6107,358.353 743.3661,112.7364 369.137,612.562 0,0" />
            </g>
          </g>
        </g>
      </g>
    </g>
    <g
       id="g1777"
       transform="rotate(-180,53.65192,120.85457)">
      <g
         id="g40016"
         transform="matrix(0.13236847,0,0,-0.26342484,-31.051615,247.29849)">
        <g
           id="g40014"
           clip-path="url(#clipPath11501)">
          <g
             id="g40012"
             clip-path="url(#clipPath11507)">
            <path
               d="M 640,320 H 320 v 320 h 320 z"
               style="fill:#ffffff;fill-opacity:1;fill-rule:nonzero;stroke:none"
               id="path39990"
               inkscape:connector-curvature="0" />
            <g
               id="g39994"
               transform="matrix(-0.1290323,0,0,-0.1290323,639.1887,639.4392)">
              <path
                 d="M 0,337.9136 360.0638,960.9832 748.257,804.3163 989.4778,808.2415 854.048,330.0269 972.3642,-0.00297285"
                 style="fill:none;stroke:#000000;stroke-width:32;stroke-linecap:butt;stroke-linejoin:miter;stroke-miterlimit:4;stroke-dasharray:none;stroke-opacity:1"
                 id="path39992"
                 inkscape:connector-curvature="0" />
            </g>
            <g
               id="g39998"
               transform="matrix(-0.1290323,0,0,-0.1290323,446.3059,639.3426)">
              <path
                 d="M 16.97412,-0.00327485 113.7169,306.9771 0,816.0649 370.8502,803.1442 982.2908,1616.845"
                 style="fill:none;stroke:#000000;stroke-width:32;stroke-linecap:butt;stroke-linejoin:miter;stroke-miterlimit:4;stroke-dasharray:none;stroke-opacity:1"
                 id="path39996"
                 inkscape:connector-curvature="0" />
            </g>
            <g
               id="g40002"
               transform="matrix(-0.1290323,0,0,-0.1290323,445.8261,467.8301)">
              <path
                 d="M 980.783,799.8669 0,0 381.7955,1146.917"
                 style="fill:none;stroke:#000000;stroke-width:32;stroke-linecap:butt;stroke-linejoin:miter;stroke-miterlimit:4;stroke-dasharray:none;stroke-opacity:1"
                 id="path40000"
                 inkscape:connector-curvature="0" />
            </g>
            <g
               id="g40006"
               transform="matrix(-0.1290323,0,0,-0.1290323,513.2358,419.2291)">
              <path
                 d="M 544.8712,771.5455 269.2168,0 0,773.3829"
                 style="fill:none;stroke:#000000;stroke-width:32;stroke-linecap:butt;stroke-linejoin:miter;stroke-miterlimit:4;stroke-dasharray:none;stroke-opacity:1"
                 id="path40004"
                 inkscape:connector-curvature="0" />
            </g>
            <g
               id="g40010"
               transform="matrix(-0.1290323,0,0,-0.1290323,639.2631,530.5281)">
              <path
                 d="M 625.7934,1626.409 867.6107,358.353 743.3661,112.7364 369.137,612.562 0,0"
                 style="fill:none;stroke:#000000;stroke-width:32;stroke-linecap:butt;stroke-linejoin:miter;stroke-miterlimit:4;stroke-dasharray:none;stroke-opacity:1"
                 id="path40008"
                 inkscape:connector-curvature="0" />
            </g>
          </g>
        </g>
      </g>
      <g
         transform="matrix(0.13236847,0,0,0.26342484,11.281721,-5.5893564)"
         id="g40044">
        <g
           clip-path="url(#clipPath11501)"
           id="g40042">
          <g
             clip-path="url(#clipPath11507)"
             id="g40040">
            <path
               inkscape:connector-curvature="0"
               id="path40018"
               style="fill:#ffffff;fill-opacity:1;fill-rule:nonzero;stroke:none"
               d="M 640,320 H 320 v 320 h 320 z" />
            <g
               transform="matrix(-0.1290323,0,0,-0.1290323,639.1887,639.4392)"
               id="g40022">
              <path
                 inkscape:connector-curvature="0"
                 id="path40020"
                 style="fill:none;stroke:#000000;stroke-width:32;stroke-linecap:butt;stroke-linejoin:miter;stroke-miterlimit:4;stroke-dasharray:none;stroke-opacity:1"
                 d="M 0,337.9136 360.0638,960.9832 748.257,804.3163 989.4778,808.2415 854.048,330.0269 972.3642,-0.00297285" />
            </g>
            <g
               transform="matrix(-0.1290323,0,0,-0.1290323,446.3059,639.3426)"
               id="g40026">
              <path
                 inkscape:connector-curvature="0"
                 id="path40024"
                 style="fill:none;stroke:#000000;stroke-width:32;stroke-linecap:butt;stroke-linejoin:miter;stroke-miterlimit:4;stroke-dasharray:none;stroke-opacity:1"
                 d="M 16.97412,-0.00327485 113.7169,306.9771 0,816.0649 370.8502,803.1442 982.2908,1616.845" />
            </g>
            <g
               transform="matrix(-0.1290323,0,0,-0.1290323,445.8261,467.8301)"
               id="g40030">
              <path
                 inkscape:connector-curvature="0"
                 id="path40028"
                 style="fill:none;stroke:#000000;stroke-width:32;stroke-linecap:butt;stroke-linejoin:miter;stroke-miterlimit:4;stroke-dasharray:none;stroke-opacity:1"
                 d="M 980.783,799.8669 0,0 381.7955,1146.917" />
            </g>
            <g
               transform="matrix(-0.1290323,0,0,-0.1290323,513.2358,419.2291)"
               id="g40034">
              <path
                 inkscape:connector-curvature="0"
                 id="path40032"
                 style="fill:none;stroke:#000000;stroke-width:32;stroke-linecap:butt;stroke-linejoin:miter;stroke-miterlimit:4;stroke-dasharray:none;stroke-opacity:1"
                 d="M 544.8712,771.5455 269.2168,0 0,773.3829" />
            </g>
            <g
               transform="matrix(-0.1290323,0,0,-0.1290323,639.2631,530.5281)"
               id="g40038">
              <path
                 inkscape:connector-curvature="0"
                 id="path40036"
                 style="fill:none;stroke:#000000;stroke-width:32;stroke-linecap:butt;stroke-linejoin:miter;stroke-miterlimit:4;stroke-dasharray:none;stroke-opacity:1"
                 d="M 625.7934,1626.409 867.6107,358.353 743.3661,112.7364 369.137,612.562 0,0" />
            </g>
          </g>
        </g>
      </g>
    </g>
  </g>
</svg>
