<?xml version="1.0" encoding="UTF-8" standalone="no"?>
<svg
   xmlns:dc="http://purl.org/dc/elements/1.1/"
   xmlns:cc="http://creativecommons.org/ns#"
   xmlns:rdf="http://www.w3.org/1999/02/22-rdf-syntax-ns#"
   xmlns:svg="http://www.w3.org/2000/svg"
   xmlns="http://www.w3.org/2000/svg"
   viewBox="0 0 480 480"
   height="480"
   width="480"
   xml:space="preserve"
   id="svg2"
   version="1.1"><metadata
     id="metadata8"><rdf:RDF><cc:Work
         rdf:about=""><dc:format>image/svg+xml</dc:format><dc:type
           rdf:resource="http://purl.org/dc/dcmitype/StillImage" /><dc:title></dc:title></cc:Work></rdf:RDF></metadata><defs
     id="defs6"><clipPath
       id="clipPath20"
       clipPathUnits="userSpaceOnUse"><path
         id="path18"
         d="M 0,0 H 360 V 360 H 0 Z" /></clipPath><clipPath
       id="clipPath30"
       clipPathUnits="userSpaceOnUse"><path
         id="path28"
         d="M 231.1325,315.312 361.0809,359.7569 316.8357,230.3951 186.8875,185.9475 Z" /></clipPath><clipPath
       id="clipPath36"
       clipPathUnits="userSpaceOnUse"><path
         id="path34"
         d="M -88.7159,-50.00361 482.9928,145.5299 629.5892,574.1506 57.88045,378.6143 Z" /></clipPath><clipPath
       id="clipPath42"
       clipPathUnits="userSpaceOnUse"><path
         id="path40"
         d="M 186.8875,185.9491 H 360 V 359.7568 H 186.8875 Z" /></clipPath><clipPath
       id="clipPath56"
       clipPathUnits="userSpaceOnUse"><path
         id="path54"
         d="M 0,185.7556 H 174.1239 V 359.9521 H 0 Z" /></clipPath><clipPath
       id="clipPath70"
       clipPathUnits="userSpaceOnUse"><path
         id="path68"
         d="M 0,0.01881854 H 87.02424 V 174.21532 l -87.02424,0 z" /></clipPath><clipPath
       id="clipPath84"
       clipPathUnits="userSpaceOnUse"><path
         id="path82"
         d="M 186.6771,0.02167364 H 360 V 87.118444 H 186.6771 Z" /></clipPath><clipPath
       id="clipPath98"
       clipPathUnits="userSpaceOnUse"><path
         id="path96"
         d="M 0,0 H 360 V 360 H 0 Z" /></clipPath></defs><g
     transform="matrix(1.3333333,0,0,-1.3333333,0,480)"
     id="g10"><g
       id="g12" /><g
       id="g14"><g
         clip-path="url(#clipPath20)"
         id="g16"><path
           id="path22"
           style="fill:#ffffff;fill-opacity:1;fill-rule:nonzero;stroke:none"
           d="M 0,0 H 360 V 360 H 0 Z" /></g></g><g
       id="g24"><g
         clip-path="url(#clipPath30)"
         id="g26"><g
           clip-path="url(#clipPath36)"
           id="g32"><g
             clip-path="url(#clipPath42)"
             id="g38"><path
               id="path44"
               style="fill:#ffffff;fill-opacity:1;fill-rule:nonzero;stroke:none"
               d="M -88.89328,-50.52735 483.0284,145.0823 629.9823,574.7449 58.06061,379.1353 Z" /><g
               transform="matrix(0.6977381,0.2386404,-0.2388407,-0.6983239,186.8875,359.7569)"
               id="g46"><path
                 id="path48"
                 style="fill:none;stroke:#000000;stroke-width:1.60033906;stroke-linecap:butt;stroke-linejoin:miter;stroke-miterlimit:4;stroke-dasharray:none;stroke-opacity:1"
                 d="m 95.187,137.025 54.322,30.524 5.101,-10.292 13.97,-8.472 -6.788,-22.765 15.075,-30.712 36.092,-0.162 2.371,31.138 -9.342,22.656 20.99,7.204 57.516,49.085 -0.285,36.539 -61.045,-59.314 -11.621,-6.139 28.299,107.213 -27.068,-0.406 -20.736,-73.801 -16.175,75.078 -31.911,-0.667 25.032,-103.02 -6.169,8.029 -19.1,3.547 -48.079,-19.551 z" /></g></g></g></g></g><g
       id="g50"><g
         clip-path="url(#clipPath56)"
         id="g52"><path
           id="path58"
           style="fill:#ffffff;fill-opacity:1;fill-rule:nonzero;stroke:none"
           d="m -297.4427,-30.76814 h 769.6369 v 578.1975 h -769.6369 z" /><g
           transform="matrix(0.7513152,0,0,-0.7519461,-1.637399,361.3333)"
           id="g60"><path
             id="path62"
             style="fill:none;stroke:#000000;stroke-width:2;stroke-linecap:butt;stroke-linejoin:miter;stroke-miterlimit:4;stroke-dasharray:none;stroke-opacity:1"
             d="M 0,52.33517 67.89137,90.48215 74.26566,77.62296 91.72251,67.03075 83.24092,38.58042 102.0807,0.203153 147.1872,0 l 2.9597,38.91116 -11.6718,28.31707 26.232,8.99994 71.8776,61.34403 -0.3556,45.6647 -76.289,-74.1247 -14.5225,-7.6766 35.3626,133.9904 -33.8262,-0.5059 -25.9142,-92.2345 -20.2162,93.8271 -39.8762,-0.8313 31.27926,-128.7499 -7.70808,10.0351 -23.86862,4.435 L 0.5629106,96.96503 Z" /></g></g></g><g
       id="g64"><g
         clip-path="url(#clipPath70)"
         id="g66"><path
           id="path72"
           style="fill:#ffffff;fill-opacity:1;fill-rule:nonzero;stroke:none"
           d="M -148.7552,-216.5049 H 236.0569 V 361.6926 H -148.7552 Z" /><g
           transform="matrix(0.3756514,0,0,-0.7519461,-0.8549579,175.5964)"
           id="g74"><path
             id="path76"
             style="fill:none;stroke:#000000;stroke-width:2;stroke-linecap:butt;stroke-linejoin:miter;stroke-miterlimit:4;stroke-dasharray:none;stroke-opacity:1"
             d="M 0,52.33517 67.89137,90.48215 74.26566,77.62296 91.72251,67.03075 83.24092,38.58042 102.0807,0.203153 147.1872,0 l 2.9597,38.91116 -11.6718,28.31707 26.232,8.99994 71.8776,61.34403 -0.3556,45.6647 -76.289,-74.1247 -14.5225,-7.6766 35.3626,133.9904 -33.8262,-0.5059 -25.9142,-92.2345 -20.2162,93.8271 -39.8762,-0.8313 31.27926,-128.7499 -7.70808,10.0351 -23.86862,4.435 L 0.5629106,96.96503 Z" /></g></g></g><g
       id="g78"><g
         clip-path="url(#clipPath84)"
         id="g80"><path
           id="path86"
           style="fill:#ffffff;fill-opacity:1;fill-rule:nonzero;stroke:none"
           d="M -110.693,-108.2384 H 658.9439 V 180.8555 H -110.693 Z" /><g
           transform="matrix(0.7513152,0,0,-0.3759669,185.1123,87.80905)"
           id="g88"><path
             id="path90"
             style="fill:none;stroke:#000000;stroke-width:2;stroke-linecap:butt;stroke-linejoin:miter;stroke-miterlimit:4;stroke-dasharray:none;stroke-opacity:1"
             d="M 0,52.33517 67.89137,90.48215 74.26566,77.62296 91.72251,67.03075 83.24092,38.58042 102.0807,0.203153 147.1872,0 l 2.9597,38.91116 -11.6718,28.31707 26.232,8.99994 71.8776,61.34403 -0.3556,45.6647 -76.289,-74.1247 -14.5225,-7.6766 35.3626,133.9904 -33.8262,-0.5059 -25.9142,-92.2345 -20.2162,93.8271 -39.8762,-0.8313 31.27926,-128.7499 -7.70808,10.0351 -23.86862,4.435 L 0.5629106,96.96503 Z" /></g></g></g><g
       id="g92"><g
         clip-path="url(#clipPath98)"
         id="g94"><g
           transform="matrix(0.1451613,0,0,-0.1451613,0,360)"
           id="g100"><path
             id="path102"
             style="fill:none;stroke:#000000;stroke-width:5;stroke-linecap:butt;stroke-linejoin:miter;stroke-miterlimit:4;stroke-dasharray:30, 30;stroke-dashoffset:0;stroke-opacity:1"
             d="M 0,0 H 1200 V 1200 H 0 Z" /></g><g
           transform="matrix(0.1451613,0,0,-0.1451613,-0.07027457,174.213)"
           id="g104"><path
             id="path106"
             style="fill:none;stroke:#000000;stroke-width:5;stroke-linecap:butt;stroke-linejoin:miter;stroke-miterlimit:4;stroke-dasharray:30, 30;stroke-dashoffset:0;stroke-opacity:1"
             d="M 0,0 H 600 V 1200 H 0 Z" /></g><g
           transform="matrix(0.1451613,0,0,-0.1451613,185.6633,87.55393)"
           id="g108"><path
             id="path110"
             style="fill:none;stroke:#000000;stroke-width:5;stroke-linecap:butt;stroke-linejoin:miter;stroke-miterlimit:4;stroke-dasharray:30, 30;stroke-dashoffset:0;stroke-opacity:1"
             d="M 0,0 H 1200 V 600 H 0 Z" /></g><g
           transform="matrix(0.1451613,0,0,-0.1451613,188.9196,359.6661)"
           id="g112"><path
             id="path114"
             style="fill:none;stroke:#000000;stroke-width:5;stroke-linecap:butt;stroke-linejoin:miter;stroke-miterlimit:4;stroke-dasharray:30, 30;stroke-dashoffset:0;stroke-opacity:1"
             d="M 0,1201.09 288.031,297.7413 1171.951,0 874.6003,891.7378 Z" /></g></g></g></g></svg>